<?xml version="1.0" encoding="utf-8"?>
<!-- Generator: Adobe Illustrator 27.0.0, SVG Export Plug-In . SVG Version: 6.00 Build 0)  -->
<svg version="1.1" id="Layer_1" xmlns="http://www.w3.org/2000/svg" xmlns:xlink="http://www.w3.org/1999/xlink" x="0px" y="0px"
	 viewBox="0 0 512.07 420.96" style="enable-background:new 0 0 512.07 420.96;" xml:space="preserve">
<style type="text/css">
	.st0{fill:#104573;}
</style>
<path class="st0" d="M481.17,237.74c-6.19-5.89-13.63-6.87-21.7-4.64c-4.35,1.2-7.73,4.21-13.21,6.94
	c5.33-12.65,6.56-24.37,4.05-36.38c-2.68-12.81-4.82-26.14-14.15-36.01c-9.63-10.19-21.89-16.6-35.83-19.2
	c-23.73-4.43-45.71,0.97-66.92,11.64c-19.27,9.7-38.92,9.33-58.39,0.35c-4.65-2.14-9.18-4.68-14.22-5.51
	c-1.55-0.26-2.88-0.61-4-1.08l0.01-6.19c0.02-9.92-8.01-17.98-17.93-18l-0.3,0l0.04-6.48c0.01-1.87-1.4-3.41-3.21-3.63l0.03-5.14
	c1.25-0.14,2.17-0.58,2.17-1.12c0.01-0.66-1.38-1.21-3.1-1.23c-1.72-0.02-3.12,0.51-3.13,1.17c-0.01,0.6,1.14,1.1,2.64,1.2
	l-0.03,5.21c-1.54,0.43-2.67,1.81-2.68,3.49l-0.04,6.64c-8.94,1.02-15.89,8.59-15.91,17.8l0,0.07c-3.47,1.52-12.95,4.45-15.35,4.53
	c-0.58,0.02-4.99,2.31-8.15,3.96c-2.45-8.21-10.49-13.73-19.29-12.7l-0.3,0.03l-0.73-6.44c-0.21-1.86-1.79-3.22-3.62-3.23
	l-0.58-5.11c1.23-0.29,2.09-0.84,2.03-1.37c-0.07-0.66-1.52-1.04-3.23-0.85c-1.71,0.19-3.04,0.87-2.97,1.53
	c0.07,0.6,1.26,0.96,2.76,0.88l0.59,5.18c-1.47,0.61-2.44,2.12-2.25,3.78l0.75,6.6c-8.75,2.07-14.76,10.41-13.69,19.56l0.6,5.13
	c-3.74,3.8-10.54,6.99-18.06,9.54c-0.21,0.07-0.43,0.13-0.63,0.22c-1.23,0.54-4.15,1.43-6.84,2.05
	c-2.45-8.21-10.49-13.73-19.29-12.7l-0.3,0.03l-0.73-6.44c-0.21-1.86-1.79-3.22-3.62-3.23l-0.58-5.11c1.23-0.29,2.09-0.84,2.03-1.37
	c-0.07-0.66-1.52-1.04-3.23-0.85c-1.71,0.19-3.04,0.87-2.97,1.53c0.07,0.6,1.26,0.96,2.76,0.88l0.59,5.18
	c-1.47,0.61-2.44,2.12-2.25,3.78l0.75,6.6c-8.44,2-14.31,9.82-13.76,18.58c-3.72,0.03-9.53-0.87-13.1-1.78
	c-1.72-0.44-3.44-0.9-5.08-1.56c-2.78-1.13-4.8-0.45-5.93,2.32c-1.28,3.15,1.43,3.83,3.31,4.68c4.38,1.99,16.03,3.43,21.68,4.23
	l1.41,11.99c-0.28-0.01-0.54-0.01-0.77-0.02c-0.5-0.01-0.89-0.02-1.15-0.03c-0.26-0.01-0.39-0.01-0.39-0.01
	c-1.11-0.05-2.04,0.81-2.09,1.92c-0.05,1.11,0.81,2.04,1.92,2.09h0c0.02,0,2.32,0.1,5.95,0.1c5.22,0,13.17-0.2,21.09-1.18
	c3.96-0.49,7.91-1.18,11.53-2.16c3.62-0.98,6.9-2.23,9.55-3.94c0.93-0.6,1.19-1.84,0.59-2.77c-0.6-0.93-1.84-1.19-2.77-0.59
	c-0.69,0.45-1.48,0.87-2.34,1.28l-1.62-13.79c7.14-2.76,17.21-6.79,23.7-6.7c0.72,0.01,1.43-0.01,2.15-0.02l0.12,1.01
	c-0.28-0.01-0.54-0.01-0.77-0.02c-0.5-0.01-0.89-0.02-1.15-0.03c-0.26-0.01-0.39-0.01-0.39-0.01c-1.11-0.05-2.04,0.81-2.09,1.92
	c-0.05,1.11,0.81,2.04,1.92,2.09l0,0c0.02,0,2.32,0.1,5.95,0.1c5.22,0,13.17-0.2,21.09-1.18c3.96-0.49,7.91-1.18,11.53-2.16
	c3.62-0.98,6.9-2.23,9.55-3.94c0.93-0.6,1.19-1.84,0.59-2.77c-0.6-0.93-1.84-1.19-2.77-0.59c-0.69,0.45-1.48,0.87-2.34,1.28
	L193,163.31c3.11-1.57,6.63-3.35,7.47-3.49c1.39-0.24,12.35-4.52,14.89-4.48l-0.02,11.26c-0.04,0-0.08-0.01-0.12-0.02
	c-0.7-0.1-1.25-0.18-1.62-0.23c-0.37-0.06-0.56-0.09-0.56-0.09c-1.09-0.18-2.12,0.56-2.3,1.66c-0.18,1.09,0.56,2.12,1.66,2.3v0
	c0.06,0.01,13.05,2.12,26.36,2.13c4.09,0,8.22-0.2,12.03-0.74c3.82-0.54,7.33-1.4,10.23-2.82c0.99-0.49,1.4-1.69,0.92-2.68
	c-0.49-0.99-1.69-1.4-2.68-0.92c-0.74,0.36-1.57,0.69-2.47,0.99l0.01-3.43c5.39,0.22,10.15,2.17,15.26,4.56
	c21.36,10.01,42.88,10.13,64.13-0.41c17.19-8.53,35-13.69,54.47-12.44c25.32,1.61,43.25,15.77,49.88,40.05
	c0.7,2.57,1.42,5.13,1.94,7.74c5.75,28.84-5.43,47.41-31.58,52.5c-12.54,2.44-25.23,2.24-37.82,1.01
	c-15.37-1.5-29.27-6.98-40.83-17.61c-6.47-5.95-8.57-13.3-6.85-21.76c1.03-5.08,3.65-9.49,6.61-13.69c1.45-2.06,1.96-3.89-0.4-5.74
	c-2.47-1.94-3.88-0.63-5.5,1.26c-12.72,14.84-11.65,33.77,2.69,47.01c0.7,0.65,2.02,0.95,1.62,3.07
	c-5.16-3.53-10.21-6.68-14.92-10.26c-9.37-7.13-18.05-14.67-23.25-25.9c-4.55-9.82-12.77-16.89-22.17-22.41
	c-9.72-5.7-20.24-9.05-31.35-10.46c-2.57-0.33-6.32-1.47-6.64,3.11c-0.27,3.8,2.74,3.96,5.48,4.16c0.44,0.03,0.89,0.06,1.33,0.13
	c23.05,3.86,41.47,14.11,50.82,36.83c1.23,2.99,3.52,5.09,5.79,7.19c10.79,10,22.6,18.6,35.47,25.75
	c42.51,23.6,83.94,19.8,121.89-11.23c2.61-2.13,5.38-3.97,8.63-4.88c5.19-1.45,10.45-1.38,14.29,2.75c3.63,3.89,2.14,8.77,0.63,13.2
	c-1.45,4.23-3.81,8.03-6.81,11.35c-6.48,7.17-14.26,12.66-22.83,17c-28.66,14.52-58.84,15.09-89.65,9.51
	c-27.31-4.95-52.97-14.68-77.71-26.99c-3.64-1.81-6.98-3.07-11.33-1.6c-21.27,7.21-43.09,12.31-65.33,15.44
	c-34.26,4.82-68.51,5.47-102.72-0.65c-18-3.22-35.37-8.47-52.09-15.87c-2.54-1.13-4.67-1.38-5.97,1.73
	c-1.23,2.95,0.74,3.99,2.85,4.96c1.01,0.46,2.04,0.87,3.06,1.32c31.82,13.95,65.41,19.52,99.85,19.97
	c34.34,0.44,68.51-3.33,101.15-13.83c17.29-5.56,31.13-3.28,47.07,3.94c35.94,16.28,73.68,26.03,113.77,20.98
	c24.15-3.04,45.99-11.53,63.56-29.1c4.93-4.93,8.91-10.59,10.64-17.4C485.63,250.34,487.06,243.33,481.17,237.74z"/>
</svg>
