<?xml version="1.0" encoding="utf-8"?>
<!-- Generator: Adobe Illustrator 27.0.0, SVG Export Plug-In . SVG Version: 6.00 Build 0)  -->
<svg version="1.1" xmlns="http://www.w3.org/2000/svg" xmlns:xlink="http://www.w3.org/1999/xlink" x="0px" y="0px"
	 viewBox="0 0 512.07 420.96" style="enable-background:new 0 0 512.07 420.96;" xml:space="preserve">
<style type="text/css">
	.st0{fill:#104573;}
	.st1{fill:#2B2227;}
</style>
<g id="Layer_2">
</g>
<g id="Layer_1">
	<path class="st0" d="M391.18,280.56c-1.74-3.72-3.21-7.08-5.06-10.25c-5.72-9.82-12.31-19.07-18.41-28.65
		c-2.84-4.46-5.66-8.95-8.44-13.45c-4.72-7.64-13.49-8.04-18.71-0.79c-0.67,0.93-1.21,1-2.25,0.69c-5.06-1.54-9.06-0.32-12.23,3.81
		c-0.79,1.03-1.36,1.19-2.57,0.69c-4.38-1.81-8.5-1.3-11.95,2.1c-1.24,1.22-1.8,1-2.61-0.35c-2.69-4.48-5.34-8.98-8.23-13.33
		c-3.67-5.52-10.87-6.38-15.87-2.09c-3.62,3.1-4.62,8.57-2.31,12.97c0.71,1.35,1.57,2.63,2.36,3.94c0.6,0.98,0.43,1.61-0.82,1.62
		c-3.27,0.02-6.55,0.01-9.82,0.01c-0.86,0-1.44-0.42-1.83-1.16c-3.04-5.8-4.47-11.96-4.3-18.51c0.04-1.54,1.06-1.61,2.14-1.62
		c3.27-0.03,6.55,0,9.82-0.04c3-0.03,3.74-0.91,3.73-3.94c-0.04-7.17-0.03-14.35,0.01-21.52c0.02-2.97-0.94-4.04-3.92-4.09
		c-1.81-0.03-3.62-0.04-5.43,0c-1.24,0.03-1.78-0.46-1.7-1.74c0.3-4.53,0.24-9.05-0.85-13.5c-0.32-1.31,0.24-1.76,1.52-1.74
		c2.37,0.04,4.74,0.04,7.1-0.01c2.28-0.05,3.18-0.91,3.22-3.18c0.11-7.45,0.19-14.89,0.21-22.34c0.01-2.99-1.06-3.96-4.08-3.97
		c-7.24-0.02-14.49-0.02-21.73,0c-2.91,0.01-3.92,0.97-3.93,3.86c-0.03,7.24-0.03,14.49,0,21.73c0.01,2.89,1.04,3.88,3.91,3.91
		c1.88,0.02,3.76,0.04,5.64,0c1.14-0.02,1.8,0.43,2.12,1.56c1.19,4.28,1.51,8.62,1.15,13.04c-0.15,1.79-0.96,2.54-2.83,2.41
		c-2.15-0.15-4.32-0.08-6.48-0.01c-2.33,0.07-3.48,1.18-3.5,3.52c-0.05,7.59-0.05,15.19,0.01,22.78c0.02,2.32,1.26,3.33,3.64,3.3
		c0.42-0.01,0.83-0.04,1.25-0.05c2.93-0.04,2.91,0.01,3.05,2.99c0.27,5.59,1.17,11.07,3.37,16.27c0.44,1.04,0.77,1.9-0.52,2.64
		c-0.97,0.56-1.25,1.59-1.25,2.72c0.01,7.59,0.01,15.18,0,22.77c0,1.27,0.34,2.39,1.46,3.05c1.07,0.62,0.92,1.33,0.53,2.27
		c-8.12,19.47-6.58,38.75,1.23,57.88c1.5,3.68,3.3,7.22,5.49,10.55c1.32,2.01,2.99,2.61,4.51,1.68c1.49-0.91,1.64-2.73,0.39-4.79
		c-7.36-12.13-11.18-25.31-11.23-39.48c-0.03-8.66,2.09-16.94,5.48-24.92c0.89-2.09,2.06-3.17,4.39-2.8c1.28,0.2,3.14-0.6,3.75,0.38
		c0.62,1-1.17,1.92-1.78,2.97c-3.02,5.23-1.79,11.26,3.34,15.23c5.18,4.01,10.43,7.91,15.66,11.86
		c10.61,8.02,21.25,16.01,31.83,24.08c3.15,2.4,6.49,4.31,10.4,5.1c0.27,0.05,0.54,0.13,0.81,0.21c3.91,1.18,3.92,1.27,2.91,5.2
		c-2.64,10.31-6.21,20.38-8.13,30.88c-1.94,10.57-2.97,21.22-2.88,31.97c0.02,2.93,0.01,2.99-2.99,3.01
		c-6.06,0.05-12.12,0.02-18.18,0.02c-45.63,0-91.25,0-136.88-0.01c-3.98,0-3.99,0-3.96-4c0.13-17.85-3.13-35.12-8.26-52.17
		c-7.25-24.11-12.17-48.74-15.47-73.69c-0.93-7.03-1.78-14.08-2.24-21.17c-0.04-0.55-0.15-1.1-0.25-1.65
		c-0.35-1.98-1.53-3.13-3.08-3.02c-1.63,0.12-2.76,1.55-2.62,3.63c0.24,3.47,0.57,6.93,0.94,10.39c1.48,13.63,3.51,27.18,5.93,40.68
		c0.36,1.99-0.21,4.13-0.32,6.21c-0.54,10.49-1.06,20.99-1.62,31.49c-0.79,15.08-1.61,30.16-2.4,45.24
		c-0.18,3.41-0.38,6.81-0.44,10.22c-0.03,1.51-0.58,1.98-2.02,1.72c-8.91-1.59-17.81-3.16-26.73-4.71
		c-1.27-0.22-1.71-0.92-1.73-2.16c-0.05-3.34-0.21-6.68-0.25-10.02c-0.19-14.9-0.19-29.81-0.56-44.71
		c-0.31-12.26-0.1-24.52-0.41-36.77c-0.4-15.74-0.31-31.48-0.3-47.22c0-9.06,0.56-18.09,3.07-26.88
		c3.15-11.08,10.47-18.81,19.95-24.8c9.22-5.82,19.19-10.15,29.15-14.48c7.53-3.28,15.36-5.88,22.63-9.74
		c20.36-10.81,31.27-27.77,33.09-50.73c0.67-8.41-0.11-16.67-1.64-24.91c-0.12-0.64-0.58-1.47,0.09-1.93
		c0.56-0.38,1.16,0.27,1.7,0.53c6.21,3.02,12.65,5.19,19.66,4.8c2.97-0.17,5.92-0.77,8.87-1.24c5.24-0.82,10.46-0.48,15.57,0.63
		c5.5,1.2,10.78,0.59,16.05-0.94c2.61-0.76,5.13-1.76,7.58-2.95c0.41-0.2,0.88-0.62,1.34-0.24c0.45,0.37,0.17,0.91,0.08,1.37
		c-1.23,6.51-2.01,13.07-1.87,19.71c0.56,27.73,13.33,47.42,38.85,58.51c11.75,5.1,23.75,9.63,35.2,15.4
		c5.8,2.92,11.39,6.15,16.57,10.09c9.91,7.55,14.78,17.82,16.38,29.93c1.49,11.23,1.16,22.51,1.2,33.79
		c0.02,5.22,0.01,10.45-0.01,15.67C391.67,278.57,391.8,279.34,391.18,280.56z M229.94,140.14c-3.76,0-7.52-0.02-11.28,0.01
		c-2.54,0.02-3.66,1.01-3.68,3.48c-0.06,7.52-0.06,15.05,0.01,22.57c0.02,2.37,1.18,3.4,3.53,3.44c2.92,0.04,5.86,0.11,8.78-0.02
		c1.85-0.08,2.61,0.66,2.9,2.42c0.71,4.23,0.82,8.43,0.23,12.68c-0.19,1.38-0.75,1.93-2.15,1.9c-3.13-0.06-6.27-0.04-9.4,0
		c-2.6,0.03-3.85,1.09-3.88,3.61c-0.07,7.52-0.08,15.05,0.01,22.57c0.03,2.57,1.35,3.56,3.92,3.47c2.23-0.07,4.46-0.05,6.68-0.07
		c1.18-0.01,1.57,0.54,1.37,1.72c-0.98,5.79-0.72,11.52,1.07,17.13c0.46,1.43,0.03,1.95-1.37,1.94c-2.51-0.01-5.02-0.01-7.52,0.01
		c-3.19,0.02-4.18,0.94-4.19,4.06c-0.03,7.1-0.03,14.21,0,21.31c0.02,3.09,1.13,4.17,4.16,4.18c3.76,0.02,7.52,0.02,11.28,0
		c0.95,0,1.81,0.1,2.33,1.04c4.26,7.68,6.95,15.72,4.73,24.59c-1.9,7.57-3.81,15.11-4.4,22.93c-0.43,5.62,0.06,11.13,1.63,16.53
		c0.74,2.53,2.18,3.51,4.01,2.96c1.71-0.52,2.25-2.04,1.58-4.53c-0.65-2.42-1.2-4.85-1.4-7.37c-0.56-7.31,0.7-14.42,2.29-21.5
		c0.93-4.14,2.45-8.14,2.76-12.41c0.51-7.06-1.08-13.7-4.03-20.05c-0.7-1.51-0.78-2.23,1.27-2.23c2.37,0,3.52-1.17,3.54-3.47
		c0.05-7.59,0.06-15.19,0-22.78c-0.02-2.27-1.32-3.35-3.64-3.33c-1.53,0.01-3.06,0.03-4.6,0.02c-0.98,0-1.73-0.35-2.11-1.36
		c-2.09-5.6-2.8-11.32-1.61-17.23c0.32-1.57,1.16-2.24,2.74-2.2c1.95,0.05,3.9,0.04,5.85-0.02c2.34-0.07,3.35-1,3.37-3.33
		c0.05-7.59,0.05-15.19,0-22.78c-0.02-2.16-1.24-3.3-3.41-3.43c-1.04-0.06-2.09-0.07-3.13-0.01c-1.51,0.09-2.05-0.36-1.9-2.04
		c0.4-4.23,0.53-8.48-0.25-12.7c-0.29-1.55,0.03-2.43,1.85-2.25c1.1,0.11,2.23,0.04,3.34,0.01c2.35-0.07,3.48-1.09,3.49-3.47
		c0.05-7.52,0.05-15.05,0-22.57c-0.02-2.48-1.13-3.44-3.69-3.46C237.33,140.11,233.64,140.13,229.94,140.14z"/>
	<path class="st0" d="M282.35,276.7c-0.02-2.49,0.79-4.2,2.67-5.23c2.06-1.13,4.15-1.01,6.14,0.23c6.32,3.94,12.64,7.89,18.96,11.83
		c2.13,1.33,4.26,2.64,6.38,3.98c1.47,0.93,3.01,1.42,4.38,0.05c1.38-1.37,0.88-2.9-0.03-4.38c-8.36-13.58-16.71-27.16-25.07-40.74
		c-2.55-4.15-5.12-8.3-7.64-12.47c-1.69-2.8-1.18-5.61,1.23-7.11c2.41-1.5,5.24-0.71,6.95,2.05c4.04,6.5,8.31,12.89,11.98,19.6
		c3.54,6.49,7.64,12.62,11.34,18.99c0.31,0.54,0.64,1.08,0.99,1.6c1.28,1.89,2.7,2.41,4.19,1.56c1.53-0.88,2.06-2.98,1.02-4.79
		c-1.82-3.13-3.74-6.2-5.63-9.29c-1.67-2.73-3.36-5.45-5.04-8.18c-1.36-2.21-1.04-4.39,0.86-5.91c1.97-1.57,4.74-1.45,6.43,0.4
		c0.7,0.76,1.23,1.68,1.78,2.57c3.15,5.09,6.29,10.19,9.41,15.3c0.76,1.25,1.67,2.32,3.27,2.18c2.16-0.19,3.24-2.53,2.03-4.59
		c-2.47-4.2-5.08-8.32-7.6-12.49c-0.5-0.83-1.02-1.7-1.26-2.62c-0.62-2.42,0.62-4.75,2.84-5.63c2.27-0.9,4.63-0.07,6.07,2.28
		c3.27,5.34,6.5,10.72,9.74,16.08c0.25,0.42,0.49,0.85,0.77,1.24c0.97,1.36,2.24,1.92,3.8,1.14c1.6-0.8,1.75-2.25,1.25-3.77
		c-0.23-0.71-0.69-1.36-1.08-2.02c-2.62-4.35-5.31-8.67-7.87-13.06c-1.45-2.48-0.77-5.19,1.43-6.59c2.36-1.5,5.2-0.97,6.72,1.56
		c8.33,13.85,17.79,26.98,26.16,40.79c4.8,7.92,8.18,16.31,9.01,25.77c0.52,5.93,3.5,11.27,7.22,15.99
		c6.21,7.88,12.48,15.7,18.79,23.49c1.05,1.29,1.12,2.28,0.34,3.72c-8.3,15.38-16.54,30.79-24.81,46.19
		c-1.24,2.32-1.46,2.31-2.85,0.01c-10.98-18.18-22.02-36.32-32.91-54.55c-3.45-5.77-8.14-9.6-14.72-11.07
		c-2.49-0.56-4.67-1.7-6.71-3.24c-16.09-12.2-32.21-24.37-48.32-36.54C283.4,279.84,282.29,278.42,282.35,276.7z"/>
	<path class="st0" d="M250.33,23.86c19.71,0,39.41,0,59.12,0.01c2.84,0,3.14,0.16,3.11,2.86c-0.15,18.38-4.53,35.42-16.36,49.97
		c-1.86,2.29-3.69,4.7-6.72,5.75c-1.25,0.43-1.54,2.05-2.71,2.81c-5.08,3.3-10.53,5.63-16.49,6.8c-3.15,0.62-6.06-0.52-9.07-0.89
		c-8.77-1.08-17.49-1.12-26.15,0.87c-1.7,0.39-3.32,0.23-4.95-0.12c-14.51-3.08-24.9-11.68-31.98-24.41
		c-6.19-11.13-9.36-23.17-9.83-35.91c-0.07-1.88-0.16-3.74-0.06-5.62c0.09-1.69,0.83-2.15,2.34-2.12c2.51,0.05,5.01,0.01,7.52,0.01
		C215.51,23.85,232.92,23.85,250.33,23.86z M232.43,43.78c0.26,2.48,0.46,5.47,0.91,8.42c1.15,7.5,3.46,14.6,7.91,20.85
		c1.2,1.69,2.67,2.04,4.11,1.12c1.51-0.97,1.83-2.59,0.66-4.35c-5.46-8.22-7.53-17.36-7.57-27.09c0-0.76,0.01-1.54-0.16-2.28
		c-0.33-1.43-1.22-2.32-2.78-2.33c-1.66-0.01-2.58,0.95-2.89,2.46C232.43,41.46,232.5,42.39,232.43,43.78z M268.6,44.43
		c0-1.25,0.1-2.52-0.02-3.76c-0.19-1.95-1.69-2.95-3.57-2.46c-1.9,0.49-2.04,1.99-2.06,3.62c-0.09,8.45-1.45,16.63-5.43,24.21
		c-0.74,1.41-1.69,2.72-2.46,4.12c-0.84,1.56-0.61,3.01,0.9,4.03c1.51,1.01,2.8,0.38,3.85-0.84c0.54-0.63,0.97-1.36,1.41-2.07
		C266.29,63.05,268.27,53.96,268.6,44.43z M209.5,47.44c-1.8,0.01-3,1.27-2.97,3.04c0.04,2.48,0.93,4.76,1.92,6.99
		c3.55,7.96,9.49,13.78,16.68,18.46c2.67,1.74,4.36,1.68,5.46-0.09c1.03-1.66,0.34-3.09-2.25-4.8
		c-7.87-5.21-14.25-11.56-16.24-21.27C211.81,48.31,210.77,47.54,209.5,47.44z M294.1,51.37c0.1-2.42-0.87-3.81-2.52-3.9
		c-1.84-0.1-2.79,0.97-3.12,2.69c-0.96,5-3.44,9.2-6.77,12.96c-2.93,3.31-6.35,6.01-10.07,8.37c-1.97,1.25-2.5,2.83-1.56,4.33
		c0.96,1.55,2.62,1.82,4.55,0.63c5.44-3.35,10.28-7.38,13.98-12.65C291.32,59.91,293.44,55.72,294.1,51.37z"/>
	<path class="st0" d="M360.23,353.35c1,0.21,1.16,0.89,1.46,1.39c6.3,10.41,12.6,20.82,18.89,31.24c1.26,2.09,1.22,2.24-1.26,2.65
		c-5,0.84-10.03,1.53-15.01,2.45c-1.86,0.34-2.35-0.35-2.43-2.01c-0.24-5.35-0.54-10.69-0.82-16.03
		c-0.28-5.34-0.56-10.69-0.82-16.03C360.18,355.85,360.23,354.68,360.23,353.35z"/>
	<path class="st0" d="M278.61,243.24c2.29,0,4.59,0.04,6.88-0.02c1.46-0.04,2.17,0.47,2.15,2.04c-0.05,4.73-0.04,9.45-0.01,14.18
		c0.01,1.32-0.54,1.9-1.85,1.9c-4.8-0.02-9.59-0.02-14.39,0c-1.34,0-1.85-0.68-1.85-1.94c0.01-4.73,0.02-9.45-0.01-14.18
		c-0.01-1.4,0.56-2.02,1.99-1.99C273.88,243.28,276.25,243.24,278.61,243.24z"/>
	<path class="st0" d="M278.04,154.92c0,2.37-0.04,4.73,0.02,7.1c0.03,1.34-0.54,1.9-1.85,1.89c-4.73-0.02-9.46-0.02-14.19,0
		c-1.32,0-1.84-0.59-1.83-1.91c0.04-4.73,0.05-9.46,0-14.19c-0.01-1.42,0.52-2.01,1.95-1.99c4.66,0.04,9.32,0.04,13.98,0
		c1.46-0.01,1.96,0.62,1.93,2.02C278,150.19,278.04,152.56,278.04,154.92z"/>
	<path class="st0" d="M278.04,201.72c0,2.29-0.04,4.59,0.01,6.88c0.03,1.34-0.53,1.85-1.86,1.84c-4.72-0.04-9.45-0.04-14.17,0
		c-1.34,0.01-1.85-0.54-1.83-1.86c0.04-4.72,0.04-9.45,0-14.17c-0.01-1.34,0.53-1.85,1.86-1.83c4.72,0.04,9.45,0.04,14.17,0
		c1.34-0.01,1.86,0.53,1.84,1.86C278,196.86,278.04,199.29,278.04,201.72z"/>
	<path class="st0" d="M293.78,250.31c5.3,8.62,10.33,16.79,15.34,24.94c-0.63,0.58-0.96,0.16-1.28-0.04
		c-4.55-2.81-9.1-5.64-13.65-8.46c-0.53-0.33-1.02-0.61-1.01-1.41c0.08-4.59,0.11-9.18,0.17-13.76
		C293.36,251.37,293.48,251.18,293.78,250.31z"/>
	<path class="st0" d="M238.77,154.94c0,2.37-0.04,4.73,0.02,7.1c0.03,1.36-0.57,1.88-1.86,1.88c-4.73-0.02-9.46-0.02-14.19,0
		c-1.33,0-1.83-0.61-1.81-1.93c0.04-4.73,0.05-9.46,0-14.19c-0.01-1.43,0.54-1.99,1.97-1.98c4.66,0.04,9.32,0.04,13.98,0
		c1.46-0.01,1.95,0.64,1.92,2.03C238.73,150.2,238.77,152.57,238.77,154.94z"/>
	<path class="st0" d="M238.77,251.9c0,2.29-0.02,4.58,0.01,6.88c0.02,1.14-0.28,1.82-1.59,1.9c-4.93,0.31-9.86,0.14-14.78,0.09
		c-1-0.01-1.48-0.55-1.48-1.59c0.02-4.93,0.02-9.86,0-14.79c0-1.14,0.5-1.62,1.63-1.62c4.86,0.02,9.72,0.03,14.59,0
		c1.33-0.01,1.64,0.7,1.62,1.85C238.75,247.03,238.77,249.46,238.77,251.9z"/>
	<path class="st0" d="M238.77,201.64c0,2.29-0.03,4.59,0.01,6.88c0.03,1.27-0.37,1.93-1.77,1.92c-4.79-0.04-9.59-0.04-14.38-0.01
		c-1.27,0.01-1.71-0.56-1.7-1.77c0.03-4.79,0.03-9.59,0-14.38c-0.01-1.27,0.57-1.71,1.77-1.7c4.79,0.03,9.59,0.03,14.38,0
		c1.27-0.01,1.72,0.56,1.7,1.77C238.74,196.78,238.77,199.21,238.77,201.64z"/>
</g>
</svg>
