<?xml version="1.0" encoding="utf-8"?>
<!-- Generator: Adobe Illustrator 27.0.0, SVG Export Plug-In . SVG Version: 6.00 Build 0)  -->
<svg version="1.1" id="Layer_1" xmlns="http://www.w3.org/2000/svg" xmlns:xlink="http://www.w3.org/1999/xlink" x="0px" y="0px"
	 viewBox="0 0 295.01 312.45" style="enable-background:new 0 0 295.01 312.45;" xml:space="preserve">
<style type="text/css">
	.st0{fill:#FFFFFF;}
</style>
<path class="st0" d="M244.09,43.36H50.92c-25.11,0-45.54,20.43-45.54,45.54v112.88c0,37.11,30.19,67.31,67.3,67.31h149.65
	c37.11,0,67.3-30.2,67.3-67.31V88.9C289.63,63.79,269.2,43.36,244.09,43.36z M236.51,73.5l-74.2,85.04
	c-3.79,4.34-9.05,6.74-14.81,6.74c-5.76,0-11.02-2.39-14.81-6.73L58.49,73.5H236.51z M222.33,238.95H72.68
	c-20.49,0-37.17-16.67-37.17-37.16V93.01l74.46,85.35c9.46,10.84,23.14,17.06,37.52,17.06c14.39,0,28.06-6.22,37.52-17.06
	l74.47-85.35v108.77C259.49,222.28,242.82,238.95,222.33,238.95z"/>
</svg>
