<?xml version="1.0" encoding="utf-8"?>
<!-- Generator: Adobe Illustrator 27.0.0, SVG Export Plug-In . SVG Version: 6.00 Build 0)  -->
<svg version="1.1" id="Layer_1" xmlns="http://www.w3.org/2000/svg" xmlns:xlink="http://www.w3.org/1999/xlink" x="0px" y="0px"
	 viewBox="0 0 512.07 420.96" style="enable-background:new 0 0 512.07 420.96;" xml:space="preserve">
<style type="text/css">
	.st0{fill:#104573;}
</style>
<path class="st0" d="M275.06,26.2c16.01,6.1,31.02,15.87,44.82,27.69c3.37,2.88,4.7,5.59,2.38,9.66c-1.36,2.39-1.38,4.34,1.65,6
	c7.54,4.13,12.73,9.87,10.98,19.37c-1.51,8.19-9.88,16.25-18.93,18c-15.28,2.96-30.57,5.83-45.87,8.63
	c-8.25,1.51-15.71,4.57-21.89,10.36c-1.57,1.47-4.07,2.82-0.75,5.26c1.61,1.19,0.53,3.06-0.06,4.54
	c-2.97,7.46-4.71,15.81-9.24,22.18c-15.11,21.27-20.78,46.56-31.11,69.83c-10.43,23.5-19.5,47.61-29.06,71.49
	c-1.55,3.87-4.98,7.49-2.12,12.31c0.45,0.76-0.53,2.47-1.02,3.68c-2.61,6.55-5.21,13.1-7.93,19.59c-1.08,2.58-1.45,5.91-5.66,5.64
	c-1.56-0.1-1.28,1.6-1.17,2.7c0.36,3.53,1.95,6.56,3.96,9.4c5.39,7.62,10.79,15.24,16.17,22.88c2.09,2.97,3.82,6.08,4.27,9.8
	c1.06,8.8-4.13,19.77-17.61,15.92c-1.26-0.36-2.65-0.45-3.78-1.04c-2.71-1.43-4.02-0.57-5.2,2.12c-3.55,8.08-3.65,8.03-12.64,6.97
	c-18.05-2.14-33.97-9.21-48.19-20.47c-3.52-2.79-4.78-5.57-2.42-9.6c2.19-3.72,1.32-6.11-2.78-8.04c-5.9-2.77-10.65-6.81-9.49-14.38
	c1.04-6.78,6.75-12.42,14.19-13.93c9.47-1.92,18.98-3.67,28.47-5.48c2.92-0.56,5.77-1.34,8.33-2.86c2.03-1.21,4.82-2.33,1.83-5.44
	c-1.26-1.31-0.21-2.82,0.31-4.14c3.1-7.76,6.24-15.51,9.38-23.25c0.31-0.76,0.5-1.91,1.06-2.16c6.65-2.98,6.94-9.88,9.17-15.34
	c17.07-41.7,33.9-83.51,50.75-125.3c1.17-2.9,3.37-5.74,1.05-9.21c-0.42-0.63,0.31-2.17,0.72-3.2c3.04-7.61,6.12-15.2,9.23-22.78
	c0.55-1.33,0.91-3.46,2.4-3.44c5.13,0.07,3.81-3.48,3.6-6.13c-0.51-6.67-2.83-12.75-6.7-18.23c-8.6-12.18-17.17-24.38-25.82-36.52
	c-3.47-4.86-6.36-9.91-7.07-15.99c-1.75-14.99,8.67-24.71,23.19-20.98c4.6,1.18,6.35-0.12,7.39-4.07c0.85-3.23,2.91-4.23,6.21-4.11
	C238.76,14.83,256.77,18.53,275.06,26.2z M324.1,89.32c2-4.17,0.57-8.11-3.67-10.2c-5.22-2.58-5.19,2.19-6.36,4.78
	c-1.3,2.89-2.47,4.94-6.31,4.8c-37.01-1.39-69.54-14.12-98.04-37.7c-5.02-4.15-7.37-7.89-3.57-13.9c0.97-1.54,1.37-3.31-0.83-4.63
	c-4.28-2.57-10.08-0.45-11.57,4.31c-1.62,5.19,0.05,9.68,2.98,13.86c8.64,12.34,17.29,24.67,25.99,36.96
	c7.12,10.06,11.42,20.92,10.04,33.53c-0.15,1.36-0.81,3.16,1.13,3.82c1.75,0.59,2.6-0.89,3.5-2.06c6.96-8.95,16.35-13.9,27.22-16.3
	c5.11-1.13,10.27-2.09,15.41-3.08c10.45-2.02,20.92-3.93,31.35-6.03C316.63,96.42,321.52,94.61,324.1,89.32z M166.85,390.84
	c2.53,0.93,4.71,1.66,6.46-0.14c1.84-1.9,1.47-4.24,0.35-6.4c-0.83-1.59-1.81-3.11-2.84-4.58c-4.96-7.11-9.82-14.29-14.98-21.26
	c-4.17-5.64-6.07-11.86-6.1-18.78c-0.01-1.4,0.66-3.2-1-3.99c-1.74-0.83-2.67,0.87-3.56,1.92c-4.81,5.68-11.11,8.28-18.27,9.56
	c-9.81,1.75-19.58,3.77-29.33,5.85c-2.64,0.56-5.21,2.18-5.02,5.19c0.19,3.02,3.15,3.95,5.64,4.75c3.39,1.09,3.85-1.89,4.45-3.87
	c1.28-4.15,3.68-5.4,8.03-5.08c19.2,1.42,36.15,8.22,51.26,20.1c4.01,3.15,6.15,6.01,3.02,10.94
	C163.22,387.8,163.85,390.11,166.85,390.84z"/>
<path class="st0" d="M220.93,251.71c13.47-32.51,31.42-58.38,58.65-76.94c9.22-6.29,19.47-9.97,30.96-8.7
	c13.98,1.55,22.67,10.27,24.03,24.26c0.45,4.58,0.46,9.21,0.96,13.79c1.09,9.97,6.11,14.15,16.18,13.68
	c7.14-0.34,14.01-2.29,20.98-3.62c10.78-2.06,21.28-1.93,31.57,2.67c15.42,6.88,21.84,26.95,12.99,41.42
	c-6.68,10.92-16.69,17.99-28.68,20.85c-35.21,8.38-65.24,26.47-93.67,47.91c-7.82,5.9-15.82,11.56-24.39,16.34
	c-27.05,15.09-53.53,2.68-59.47-27.89c-3.13-16.12-0.03-31.72,4.39-47.13C217.28,261.88,219.64,255.58,220.93,251.71z"/>
</svg>
