<?xml version="1.0" encoding="utf-8"?>
<!-- Generator: Adobe Illustrator 27.0.0, SVG Export Plug-In . SVG Version: 6.00 Build 0)  -->
<svg version="1.1" id="Layer_1" xmlns="http://www.w3.org/2000/svg" xmlns:xlink="http://www.w3.org/1999/xlink" x="0px" y="0px"
	 viewBox="0 0 295.01 312.45" style="enable-background:new 0 0 295.01 312.45;" xml:space="preserve">
<style type="text/css">
	.st0{fill:#FFFFFF;}
</style>
<g>
	<path class="st0" d="M223.16,61.88c-9.21,0-16.69,7.47-16.69,16.69c0,9.22,7.47,16.69,16.69,16.69c9.22,0,16.69-7.47,16.69-16.69
		C239.85,69.35,232.38,61.88,223.16,61.88z"/>
	<path class="st0" d="M148.97,83.28c-38.65,0-70.1,31.45-70.1,70.1c0,38.65,31.45,70.1,70.1,70.1c38.65,0,70.1-31.45,70.1-70.1
		C219.07,114.73,187.62,83.28,148.97,83.28z M148.97,198.28c-24.76,0-44.91-20.14-44.91-44.9c0-24.76,20.14-44.9,44.91-44.9
		c24.76,0,44.9,20.14,44.9,44.9C193.87,178.14,173.73,198.28,148.97,198.28z"/>
	<path class="st0" d="M204.62,295.7H90.98c-47.14,0-85.5-38.35-85.5-85.5V96.56c0-47.15,38.35-85.5,85.5-85.5h113.64
		c47.14,0,85.5,38.35,85.5,85.5V210.2C290.13,257.35,251.77,295.7,204.62,295.7z M90.98,37.84c-32.38,0-58.72,26.34-58.72,58.72
		V210.2c0,32.38,26.34,58.72,58.72,58.72h113.64c32.38,0,58.72-26.34,58.72-58.72V96.56c0-32.38-26.34-58.72-58.72-58.72H90.98z"/>
</g>
</svg>
