<?xml version="1.0" encoding="utf-8"?>
<!-- Generator: Adobe Illustrator 27.0.0, SVG Export Plug-In . SVG Version: 6.00 Build 0)  -->
<svg version="1.1" id="Layer_1" xmlns="http://www.w3.org/2000/svg" xmlns:xlink="http://www.w3.org/1999/xlink" x="0px" y="0px"
	 viewBox="0 0 295.01 312.45" style="enable-background:new 0 0 295.01 312.45;" xml:space="preserve">
<style type="text/css">
	.st0{fill:#FFFFFF;}
</style>
<g>
	<path class="st0" d="M147.96,9.81c-65.91,0-119.52,53.62-119.52,119.52c0,43.98,48.19,110.01,88.62,157.65
		c7.71,9.09,18.98,14.3,30.91,14.3c11.93,0,23.19-5.21,30.91-14.3c40.43-47.65,88.61-113.68,88.61-157.65
		C267.47,63.43,213.86,9.81,147.96,9.81z M154.11,265.98c-2.09,2.47-4.75,2.84-6.15,2.84c-1.4,0-4.06-0.37-6.15-2.84
		c-50.66-59.7-80.91-110.79-80.91-136.65c0-48,39.06-87.05,87.06-87.05c48,0,87.06,39.05,87.06,87.05
		C235.01,155.18,204.76,206.26,154.11,265.98z"/>
	<g>
		<path class="st0" d="M189.19,124.37h-10c0,4.34-0.87,8.42-2.45,12.15c-2.36,5.59-6.34,10.38-11.33,13.75
			c-5,3.37-10.95,5.32-17.46,5.33c-4.34,0-8.42-0.87-12.15-2.45c-5.59-2.36-10.38-6.34-13.75-11.33c-3.37-5-5.32-10.95-5.33-17.46
			c0-4.34,0.87-8.42,2.45-12.15c2.36-5.59,6.34-10.38,11.33-13.75c5-3.37,10.95-5.32,17.46-5.33c4.34,0,8.42,0.87,12.15,2.45
			c5.59,2.36,10.38,6.34,13.75,11.33c3.37,5,5.32,10.95,5.33,17.46H189.19h10c0-7.05-1.43-13.81-4.03-19.95
			c-3.9-9.21-10.38-17.01-18.55-22.53c-8.17-5.52-18.08-8.76-28.65-8.76c-7.05,0-13.81,1.43-19.95,4.03
			c-9.21,3.9-17.01,10.38-22.53,18.55c-5.52,8.17-8.76,18.08-8.76,28.65c0,7.05,1.43,13.81,4.03,19.95
			c3.9,9.21,10.38,17.01,18.55,22.53c8.17,5.52,18.08,8.76,28.65,8.76c7.05,0,13.81-1.43,19.95-4.03
			c9.21-3.9,17.01-10.38,22.53-18.55c5.52-8.17,8.76-18.08,8.76-28.65H189.19z"/>
	</g>
</g>
</svg>
