<?xml version="1.0" encoding="utf-8"?>
<!-- Generator: Adobe Illustrator 27.0.0, SVG Export Plug-In . SVG Version: 6.00 Build 0)  -->
<svg version="1.1" id="Layer_1" xmlns="http://www.w3.org/2000/svg" xmlns:xlink="http://www.w3.org/1999/xlink" x="0px" y="0px"
	 viewBox="0 0 479.75 82" style="enable-background:new 0 0 479.75 82;" xml:space="preserve">
<style type="text/css">
	.st0{fill:#A2A1A3;}
	.st1{fill:#386994;}
	.st2{fill:#104573;}
</style>
<path class="st0" d="M142.03,58.65h-2.36V27.29l-11.54,21.68h-0.4l-11.54-21.68v31.36h-2.36V23.36h2.94l11.14,20.87l11.14-20.87
	h2.98V58.65z"/>
<path class="st0" d="M152.84,41c0-10.08,7.08-18.2,16.08-18.2c9,0,16.08,8.12,16.08,18.2s-7.08,18.2-16.08,18.2
	C159.92,59.2,152.84,51.09,152.84,41z M182.64,41c0-8.67-6.01-15.63-13.72-15.63S155.2,32.33,155.2,41s6.01,15.63,13.72,15.63
	S182.64,49.67,182.64,41z"/>
<path class="st0" d="M217.82,25.88h-9.8v32.77h-2.41V25.88h-9.8v-2.52h22.01V25.88z"/>
<path class="st0" d="M231,23.36v35.29h-2.36V23.36H231z"/>
<path class="st0" d="M241.81,41c0-10.08,7.08-18.2,16.08-18.2c9,0,16.08,8.12,16.08,18.2s-7.08,18.2-16.08,18.2
	C248.89,59.2,241.81,51.09,241.81,41z M271.61,41c0-8.67-6.01-15.63-13.72-15.63S244.17,32.33,244.17,41s6.01,15.63,13.72,15.63
	S271.61,49.67,271.61,41z"/>
<path class="st0" d="M307.64,23.36v35.29h-2.09l-18.4-30.35v30.35h-2.36V23.36h2.05l18.44,30.35V23.36H307.64z"/>
<path class="st1" d="M318.45,41c0-10.08,6.73-18.2,16.21-18.2c5.75,0,10.78,3.33,13.36,8.47l-2.09,1.36
	c-2.05-4.34-6.37-7.26-11.27-7.26c-8.2,0-13.85,6.96-13.85,15.63s5.66,15.63,13.85,15.63c4.94,0,9.31-2.97,11.36-7.41l2.09,1.36
	c-2.54,5.19-7.62,8.62-13.45,8.62C325.18,59.2,318.45,51.09,318.45,41z"/>
<path class="st1" d="M371.14,44.18h-9.84v14.47h-2.36V23.36h12.29c5.08,0,9.22,4.69,9.22,10.44c0,4.79-2.89,8.82-6.86,10.03
	l7.75,14.82h-2.72L371.14,44.18z M361.29,41.66h9.93c3.79,0,6.86-3.53,6.86-7.87c0-4.39-3.07-7.92-6.86-7.92h-9.93V41.66z"/>
<path class="st1" d="M413.31,49.67h-15.64l-3.03,8.97h-2.49l12.12-35.29h2.49l12.07,35.29h-2.49L413.31,49.67z M412.46,47.15
	l-6.95-20.52l-6.95,20.52H412.46z"/>
<path class="st1" d="M432.01,25.88v14.12h14.39v2.52h-14.39v16.13h-2.36V23.36h17.28v2.52H432.01z"/>
<path class="st1" d="M479.75,25.88h-9.8v32.77h-2.4V25.88h-9.8v-2.52h22V25.88z"/>
<g>
	<path class="st0" d="M77.74,0.79l-0.18-0.31L66.21,7.03c-1.15,0.66-1.79,1.87-1.79,3.1c0,0.61,0.15,1.22,0.48,1.79l0.31-0.18h-0.35
		v0v0.1l0.05,0.08c0.66,1.15,1.87,1.79,3.1,1.79c0.61,0,1.22-0.16,1.79-0.48l0,0l11.35-6.55c1.15-0.66,1.79-1.87,1.79-3.1
		c0-0.61-0.16-1.22-0.48-1.79l-0.31,0.18h0.35v0V1.87l-0.05-0.08C81.79,0.64,80.58,0,79.35,0c-0.61,0-1.22,0.16-1.79,0.48
		L77.74,0.79l0.18,0.31c0.45-0.26,0.95-0.39,1.43-0.39c0.99,0,1.96,0.51,2.49,1.44l0.31-0.18h-0.35v0v0.1l0.05,0.08
		c0.26,0.45,0.38,0.95,0.39,1.43c0,0.99-0.51,1.96-1.44,2.49l-11.35,6.55l0,0c-0.45,0.26-0.95,0.39-1.43,0.39
		c-0.99,0-1.96-0.51-2.49-1.44l-0.31,0.18h0.35v0v-0.1l-0.05-0.08c-0.26-0.45-0.39-0.95-0.39-1.43c0-0.99,0.51-1.96,1.44-2.49
		l11.35-6.55L77.74,0.79z"/>
	<path class="st0" d="M84.3,27.46l-0.18-0.31l-8.05,4.65c-1.15,0.66-1.79,1.87-1.79,3.1c0,0.61,0.15,1.22,0.48,1.79l0.31-0.18h-0.35
		v0v0.1l0.05,0.08c0.66,1.15,1.87,1.79,3.1,1.79c0.61,0,1.22-0.16,1.79-0.48l8.05-4.65c1.15-0.66,1.79-1.87,1.79-3.1
		c0-0.61-0.16-1.22-0.48-1.79l-0.31,0.18h0.35v0v-0.09l-0.05-0.08c-0.66-1.15-1.87-1.79-3.1-1.79c-0.61,0-1.22,0.16-1.79,0.48l0,0
		L84.3,27.46l0.18,0.31c0.45-0.26,0.95-0.39,1.43-0.39c0.99,0,1.96,0.51,2.49,1.44l0.31-0.18h-0.35v0v0.1l0.05,0.08
		c0.26,0.45,0.39,0.95,0.39,1.43c0,0.99-0.51,1.96-1.44,2.49l-8.05,4.65l0,0c-0.45,0.26-0.95,0.39-1.43,0.39
		c-0.99,0-1.96-0.51-2.49-1.44l-0.31,0.18l0.35,0v0v-0.1l-0.05-0.08c-0.26-0.45-0.39-0.95-0.39-1.43c0-0.99,0.51-1.96,1.44-2.49
		l8.05-4.65l0,0L84.3,27.46z"/>
	<path class="st0" d="M84.8,4.38l-0.18-0.31l-14.61,8.44c-1.15,0.66-1.79,1.87-1.79,3.1c0,0.61,0.15,1.22,0.48,1.79l0.31-0.18h-0.35
		v0v0.1l0.05,0.08c0.66,1.15,1.87,1.79,3.1,1.79c0.61,0,1.22-0.16,1.79-0.48l14.61-8.44C89.35,9.61,90,8.41,90,7.17
		c0-0.61-0.16-1.22-0.48-1.79l-0.31,0.18h0.35v0V5.46l-0.05-0.08c-0.66-1.15-1.87-1.79-3.1-1.79c-0.61,0-1.22,0.16-1.79,0.48
		L84.8,4.38l0.18,0.31c0.45-0.26,0.95-0.39,1.43-0.39c0.99,0,1.96,0.51,2.49,1.44l0.31-0.18h-0.35v0v0.1l0.05,0.08
		c0.26,0.45,0.39,0.95,0.39,1.43c0,0.99-0.51,1.96-1.44,2.49L73.24,18.1l0,0c-0.45,0.26-0.95,0.39-1.43,0.39
		c-0.99,0-1.96-0.51-2.49-1.44l-0.31,0.18h0.35v0v-0.09l-0.05-0.08c-0.26-0.45-0.39-0.95-0.39-1.43c0-0.99,0.51-1.96,1.44-2.49
		l14.61-8.44L84.8,4.38z"/>
	<path class="st0" d="M91.21,16.06l-0.18-0.31l-14.61,8.44c-1.15,0.66-1.79,1.87-1.79,3.1c0,0.61,0.15,1.22,0.48,1.79l0.31-0.18
		h-0.35v0V29l0.05,0.08c0.66,1.15,1.87,1.79,3.1,1.79c0.61,0,1.22-0.16,1.79-0.48v0l14.61-8.44c1.15-0.66,1.79-1.87,1.79-3.1
		c0-0.61-0.16-1.22-0.48-1.79l-0.31,0.18h0.35v0v-0.1l-0.05-0.08c-0.66-1.15-1.87-1.79-3.1-1.79c-0.61,0-1.22,0.16-1.79,0.48
		L91.21,16.06l0.18,0.31c0.45-0.26,0.95-0.39,1.43-0.39c0.99,0,1.96,0.51,2.49,1.44l0.31-0.18h-0.35v0v0.1l0.05,0.08
		c0.26,0.45,0.38,0.95,0.39,1.43c0,0.99-0.51,1.96-1.44,2.49l-14.61,8.44v0c-0.45,0.26-0.95,0.39-1.43,0.39
		c-0.99,0-1.96-0.51-2.49-1.44l-0.31,0.18h0.35v0v-0.09l-0.05-0.08c-0.26-0.45-0.39-0.95-0.39-1.43c0-0.99,0.51-1.96,1.44-2.49
		l14.61-8.44L91.21,16.06z"/>
	<path class="st0" d="M89.35,9.24l-0.18-0.31l-15.94,9.2c-1.21,0.7-1.88,1.96-1.88,3.26c0,0.64,0.16,1.29,0.5,1.88l0.1,0.17
		l0.2,0.01l0.01-0.35l-0.31,0.18c0.7,1.21,1.96,1.88,3.26,1.88c0.64,0,1.29-0.16,1.88-0.5l15.94-9.2c1.21-0.7,1.88-1.96,1.88-3.26
		c0-0.64-0.16-1.29-0.5-1.88l-0.31,0.18h0.35v0v-0.09l-0.05-0.08c-0.7-1.21-1.96-1.88-3.26-1.88c-0.64,0-1.29,0.16-1.88,0.5
		L89.35,9.24l0.18,0.31c0.48-0.28,1.01-0.41,1.52-0.41c1.06,0,2.08,0.55,2.65,1.53l0.31-0.18h-0.35v0v0.1l0.05,0.08
		c0.28,0.48,0.41,1.01,0.41,1.52c0,1.06-0.55,2.08-1.53,2.65l-16.24,9.38l0.31-0.18c-0.48,0.28-1.01,0.41-1.52,0.41
		c-1.06,0-2.08-0.55-2.65-1.53l-0.1-0.17l-0.2-0.01l-0.01,0.35l0.31-0.18c-0.28-0.48-0.41-1.01-0.41-1.52
		c0-1.06,0.55-2.08,1.53-2.65l15.94-9.2L89.35,9.24z"/>
	<path class="st0" d="M15.44,42.68L4.09,49.23c-1.15,0.66-1.79,1.87-1.79,3.1c0,0.61,0.15,1.22,0.48,1.79l0.31-0.18H2.73v0v0.1
		l0.05,0.08c0.66,1.14,1.85,1.77,3.08,1.77c0.62,0,1.24-0.16,1.81-0.49l-0.35-0.61c-0.46,0.27-0.96,0.39-1.46,0.39
		c-0.99,0-1.94-0.5-2.47-1.41l-0.31,0.18h0.35v0v-0.1l-0.05-0.08C3.13,53.32,3.01,52.82,3,52.34c0-0.99,0.51-1.96,1.44-2.49
		l11.35-6.55L15.44,42.68L15.44,42.68z"/>
	<path class="st0" d="M14.74,50.47L1.79,58l0,0C0.64,58.67,0,59.87,0,61.11c0,0.61,0.15,1.22,0.48,1.79l0.31-0.18H0.43v0v0.1
		l0.05,0.08c0.69,1.19,2.01,1.92,3.33,1.92c0.57,0,1.15-0.14,1.67-0.44l-0.35-0.61C4.73,64,4.27,64.11,3.82,64.11
		c-1.07,0-2.17-0.61-2.72-1.57l-0.31,0.18h0.35v0v-0.1l-0.05-0.08c-0.26-0.45-0.39-0.95-0.39-1.43c0-0.99,0.51-1.96,1.44-2.49
		l12.96-7.53L14.74,50.47L14.74,50.47z"/>
	<path class="st0" d="M19.82,55.69l-0.18-0.31l-16.97,9.8c-1.15,0.66-1.79,1.87-1.79,3.1c0,0.61,0.15,1.22,0.48,1.79l0.31-0.18H1.32
		v0V70l0.05,0.08c0.66,1.15,1.87,1.79,3.1,1.79c0.61,0,1.22-0.16,1.79-0.48l16.97-9.8c1.15-0.66,1.79-1.87,1.79-3.1
		c0-0.61-0.16-1.22-0.48-1.79l-0.31,0.18h0.35v0v-0.09l-0.05-0.08c-0.66-1.15-1.87-1.79-3.1-1.79c-0.61,0-1.22,0.16-1.79,0.48
		L19.82,55.69L20,56c0.45-0.26,0.95-0.39,1.43-0.39c0.99,0,1.96,0.51,2.49,1.44l0.31-0.18h-0.35v0v0.1l0.05,0.08
		c0.26,0.45,0.38,0.95,0.39,1.43c0,0.99-0.51,1.96-1.44,2.49L5.9,70.77c-0.45,0.26-0.95,0.39-1.43,0.39c-0.99,0-1.96-0.51-2.49-1.44
		L1.67,69.9h0.35v0v-0.1l-0.05-0.08c-0.26-0.45-0.39-0.95-0.39-1.43c0-0.99,0.51-1.96,1.44-2.49L20,56L19.82,55.69z"/>
	<path class="st0" d="M23.59,60.82l-0.18-0.31l-16.97,9.8c-1.15,0.66-1.79,1.87-1.79,3.1c0,0.61,0.15,1.22,0.48,1.79l0.31-0.18H5.08
		l0,0v0.1l0.05,0.08c0.66,1.15,1.87,1.79,3.1,1.79c0.61,0,1.22-0.16,1.79-0.48l16.97-9.8c1.15-0.66,1.79-1.87,1.79-3.1
		c0-0.61-0.16-1.22-0.48-1.79L28,62h0.35v0v-0.1l-0.05-0.08c-0.66-1.15-1.87-1.79-3.1-1.79c-0.61,0-1.22,0.16-1.79,0.48L23.59,60.82
		l0.18,0.31c0.45-0.26,0.95-0.39,1.43-0.39c0.99,0,1.96,0.51,2.49,1.44L28,62h-0.35v0v0.1l0.05,0.08c0.26,0.45,0.39,0.95,0.39,1.43
		c0,0.99-0.51,1.96-1.44,2.49L9.67,75.9c-0.45,0.26-0.95,0.39-1.43,0.39c-0.99,0-1.96-0.51-2.49-1.44l-0.31,0.18h0.35l0,0v-0.09
		l-0.05-0.08c-0.26-0.45-0.39-0.95-0.39-1.43c0-0.99,0.51-1.96,1.44-2.49l16.97-9.8L23.59,60.82z"/>
	<path class="st0" d="M26.49,66.77l-0.18-0.31l-8.39,4.84c-1.15,0.66-1.79,1.87-1.79,3.1c0,0.61,0.15,1.22,0.48,1.79l0.31-0.18
		h-0.35v0v0.1l0.05,0.08c0.66,1.15,1.87,1.79,3.1,1.79c0.61,0,1.22-0.16,1.79-0.48l8.39-4.84c1.15-0.66,1.79-1.87,1.79-3.1
		c0-0.61-0.16-1.22-0.48-1.79l-0.31,0.18h0.35l0,0v-0.09l-0.05-0.08c-0.66-1.15-1.87-1.79-3.1-1.79c-0.61,0-1.22,0.16-1.79,0.48
		L26.49,66.77l0.18,0.31c0.45-0.26,0.95-0.39,1.43-0.39c0.99,0,1.96,0.51,2.49,1.44l0.31-0.18h-0.35l0,0v0.1l0.05,0.08
		c0.26,0.45,0.39,0.95,0.39,1.43c0,0.99-0.51,1.96-1.44,2.49l-8.39,4.84c-0.45,0.26-0.95,0.39-1.43,0.39
		c-0.99,0-1.96-0.51-2.49-1.44l-0.31,0.18h0.35v0v-0.09l-0.05-0.08c-0.26-0.45-0.39-0.95-0.39-1.43c0-0.99,0.51-1.96,1.44-2.49
		l8.39-4.84L26.49,66.77z"/>
	<polygon class="st1" points="54.2,54.86 54.2,54.87 48.16,70.79 44.55,61.27 39.71,48.54 38.5,45.35 35.52,37.51 31.38,26.62 
		26.86,14.71 23.95,22.36 14.01,48.54 1.92,48.54 17.91,6.43 19.82,1.39 33.89,1.39 41.72,21.99 44.37,28.96 44.55,29.42 
		50.59,45.35 51.12,46.8 51.81,48.54 	"/>
	<path class="st1" d="M69.28,1.45l-0.02-0.06H55.19l-7.52,19.8l0,0.01l1.94,5.1l4.11,10.82l4.87-12.82l0.51-1.34l3.13-8.25
		l3.62,9.52l0.18,0.47c0,0,0.15,0.39,0.29,0.77l0.05,0.12l0.61,1.6l8.1,21.35h12.09l-6.33-16.67C80.83,31.87,69.86,2.98,69.28,1.45z
		"/>
	<path class="st2" d="M47.28,82c-0.77-0.04-1.52-0.1-2.27-0.2c-0.33-0.04-0.66-0.09-0.98-0.14C29.47,79.39,18.34,66.8,18.34,51.6
		c0-1.04,0.05-2.06,0.15-3.06c0.71-7.05,3.81-13.39,8.5-18.19l5.17,13.62c-0.55,1.47-1,3-1.31,4.57c-0.41,1.98-0.62,4.02-0.62,6.12
		c0,3.11,0.47,6.12,1.34,8.94c2.16,7.04,6.81,13,12.92,16.84c0.27,0.18,0.55,0.34,0.84,0.51C45.96,81.33,46.62,81.68,47.28,82z"/>
	<path class="st2" d="M71.88,50.45c0,9.99-6.21,18.41-14.69,21.03c4.36-4.01,7.13-9.98,7.13-16.65c0-6.44-2.58-12.23-6.69-16.23
		l3-7.75C67.3,34.45,71.88,41.87,71.88,50.45z"/>
</g>
</svg>
