<?xml version="1.0" encoding="utf-8"?>
<!-- Generator: Adobe Illustrator 27.0.0, SVG Export Plug-In . SVG Version: 6.00 Build 0)  -->
<svg version="1.1" id="Layer_1" xmlns="http://www.w3.org/2000/svg" xmlns:xlink="http://www.w3.org/1999/xlink" x="0px" y="0px"
	 viewBox="0 0 512.07 420.96" style="enable-background:new 0 0 512.07 420.96;" xml:space="preserve">
<style type="text/css">
	.st0{fill:#104573;}
</style>
<g>
	<path class="st0" d="M256.23,294.69c80.71,0,161.42-0.01,242.13,0.01c9.33,0,13.62,4.41,13.65,13.84
		c0.03,9.64,0.11,19.29,0.01,28.93c-0.08,8.23-4.45,12.45-12.76,12.59c-2.99,0.05-6.03,0.33-8.98-0.02
		c-5.25-0.62-6.44,1.68-6.38,6.56c0.23,18.29,0.08,36.58,0.05,54.87c-0.01,7.06-0.11,7.15-7.32,7.17c-3.16,0.01-6.34-0.18-9.48,0.04
		c-4.36,0.29-5.77-1.54-5.73-5.85c0.18-18.95-0.02-37.91,0.2-56.87c0.05-4.53-1.24-5.97-5.91-5.96
		c-131.8,0.11-263.6,0.06-395.4,0.08c-11.2,0-9.63-0.91-9.7,9.54c-0.12,17.46-0.03,34.92-0.05,52.38c-0.01,6.44-0.18,6.6-6.82,6.64
		c-3.33,0.02-6.67-0.18-9.98,0.04c-4.37,0.28-5.78-1.58-5.74-5.86c0.18-18.46,0.09-36.91,0.11-55.37c0.01-7.39,0.04-7.39-7.37-7.39
		c-3.49,0-7,0.17-10.48-0.05c-5.73-0.36-10.04-4.6-10.13-10.35c-0.19-11.3-0.23-22.62-0.01-33.92c0.13-6.78,5.4-10.97,13.45-11
		c20.97-0.08,41.94-0.06,62.9-0.06C136.41,294.69,196.32,294.69,256.23,294.69z"/>
	<path class="st0" d="M357.46,286.1c-4.52,1.59-7.8,1.9-11.14,1.9c-98.01,0.01-196.02,0.06-294.03,0.02
		c-13.71-0.01-24.05-10.82-24.08-24.71c-0.03-13.6,10.36-24.19,24.4-24.27c28.12-0.16,56.24-0.05,84.36-0.05
		c19.3,0,38.61-0.1,57.91,0.1c4.7,0.05,7.22-1.33,9.58-5.79c5.92-11.19,16.34-16.99,28.42-19.01c15.73-2.64,31.58-5.01,47.62-4.2
		c25.22,1.26,49.98,5.06,73.09,15.88c8.82,4.13,15.14,11.25,19.54,19.98c0.53,1.05,1.33,2.2,0.58,3.26
		c-0.97,1.36-2.44,0.66-3.67,0.25c-5.22-1.71-10.44-3.41-15.61-5.24c-9.59-3.39-20.29,1.15-24.08,10.32
		c-3.88,9.38,0.52,20.55,9.92,24.69C345.55,281.55,350.97,283.52,357.46,286.1z"/>
	<path class="st0" d="M406.57,288.97c-21.68,0.57-43.1-3.41-63.66-11.92c-7.05-2.92-11.29-9.04-10.96-15.7
		c0.33-6.61,5.14-12.62,11.67-14.72c4.25-1.36,8.15-0.28,12.12,1.26c21.95,8.47,44.54,11.29,68.02,8.59
		c12.87-1.48,25.07-4.92,37.22-9c9.37-3.14,17.71,0.67,20.66,9.19c3.14,9.06-0.81,17.32-10.06,20.82
		C454.73,283.88,430.79,289.82,406.57,288.97z"/>
	<path class="st0" d="M434.88,199.96c23.87,0.04,43.27,18.33,43.89,41.36c0.09,3.18,0.4,5.85-4.4,3.46
		c-4.78-2.38-10.05-2.04-15.06-0.14c-20.03,7.59-40.73,10.49-62.09,9.5c-4.62-0.21-5.98-2.27-6.31-6.37
		C388.8,221.64,408.72,199.92,434.88,199.96z"/>
	<path class="st0" d="M150.23,352.78c6.65,0,13.31,0.07,19.96-0.03c3.49-0.05,5.11,1.16,5.06,4.95
		c-0.17,12.46,0.08,24.93-0.12,37.39c-0.25,15.43-10.92,26.04-25.66,25.87c-13.17-0.15-23.89-10.12-24.34-23.49
		c-0.44-13.28-0.04-26.59-0.12-39.88c-0.02-3.76,1.82-4.89,5.26-4.84C136.93,352.85,143.58,352.78,150.23,352.78z"/>
	<path class="st0" d="M230.58,352.79c6.82,0,13.64,0.01,20.45,0c2.77,0,4.84,0.68,5.24,3.98c1.5,12.36,3.69,24.65,3.98,37.12
		c0.31,13.48-8.88,23.82-21.85,25.17c-13.46,1.4-24.98-6.71-27.17-20.13c-2.24-13.75-3.53-27.66-5.28-41.49
		c-0.46-3.67,1.48-4.68,4.67-4.65C217.28,352.82,223.93,352.79,230.58,352.79z"/>
	<polygon class="st0" points="84.92,185.84 79.32,187 86.15,219.98 88.4,219.51 90.92,231.71 92.05,231.47 89.52,219.28 
		91.76,218.82 	"/>
	<polygon class="st0" points="114.15,185.84 108.54,187 115.38,219.98 117.63,219.51 120.15,231.71 121.28,231.47 118.75,219.28 
		120.99,218.82 	"/>
	<polygon class="st0" points="264.91,160.71 259.31,161.87 266.14,194.85 268.39,194.39 270.92,206.58 272.04,206.35 269.52,194.15 
		271.75,193.69 	"/>
	<polygon class="st0" points="371.67,179.95 366.26,178.07 355.22,209.89 357.39,210.64 353.31,222.41 354.39,222.78 358.47,211.02 
		360.63,211.77 	"/>
	<path class="st0" d="M329.5,160.94c-5.43-1.6-10.89-3.1-15.9-5.82c-14.2-7.7-22.85-19.99-28.52-34.68
		c-3.99-10.32-4.9-21.33-7.03-32.07c-0.49-2.44,1.3-2.74,2.76-3.38c5.54-2.44,10.92-5.4,14.78-10
		c12.07-14.36,16.19-30.49,8.39-48.23C296.44,9.6,282.85,0.75,264.12,0.03c-18.51-0.7-35.85,11.06-42.29,28.45
		c-6.77,18.26-1.47,38.29,13.36,50.05c9.52,7.55,20.4,10.97,33.51,9.88c-19.23,6.44-44.15-5.26-52.5-24.69
		c-3.11-7.23-8.69-9.65-15.12-10.19c-15.09-1.26-29.91,0.79-44.08,6.37c-26.25,10.33-38.01,33.16-31.32,60.59
		c5.81,23.84,18.91,43.78,33.83,62.7c1.99,2.52,4.59,4.3,7.83,5.05c6.87,1.61,13.62-0.85,17.59-6.5c4.17-5.95,4.31-12.81-0.42-19.02
		c-6.35-8.37-12.24-17.02-17.54-26.06c-5.75-9.81-10.63-20.07-10.55-31.79c0.05-8,6.43-14.3,14.39-14.35
		c-1.67,3.97-2.86,8.01-4.95,11.52c-6.15,10.36-4.5,19.81,1.31,29.88c6,10.41,13.04,20.06,19.71,29.99
		c4.98,7.42,4.57,16.48-0.77,22.71c-8.16,9.53-21.65,9.01-29.87-1.26c-2.81-3.5-5.23-7.3-7.87-10.93c-1.51-2.08-2.86-2.33-3.65,0.53
		c-0.35,1.28-0.64,2.59-0.84,3.9c-2.73,17.9-5.31,35.82-8.25,53.69c-0.73,4.42,0.64,5.65,4.8,5.6c10.65-0.12,21.31,0.04,31.96,0.01
		c4.81,0.29,20.09-0.11,24.92-0.12c1.91,0,2.99-1.19,3.83-2.74c7.5-13.71,19.74-20.16,34.64-22.33c3.94-0.58,5.64-2.43,6.18-6.36
		c1.22-8.88,2.69-17.74,4.34-26.56c2.42-12.89,6.31-25.38,11.32-38.96c1.57,2.94,2.4,4.54,3.27,6.13
		c4.38,8.06,9.36,15.7,15.86,22.27c10.25,10.37,22.33,17.75,36.19,22.25c1.25,0.41,2.91,0.72,3.87,1.53
		c0.72,0.27,1.34,0.65,1.83,1.14c0.77,0,1.54,0.02,2.31,0.02l-2.14,6.18l2.17,0.75l-4.08,11.76l1.09,0.38l4.08-11.76l2.15,0.74
		l2.77-7.98h0.12c0.15,0,0.29,0.01,0.43,0.03c0.39-0.1,0.79-0.18,1.19-0.28c7.66-1.82,12.74-7.98,13.03-15.61
		C342.04,169.55,337.07,163.17,329.5,160.94z"/>
</g>
</svg>
