<?xml version="1.0" encoding="utf-8"?>
<!-- Generator: Adobe Illustrator 27.0.0, SVG Export Plug-In . SVG Version: 6.00 Build 0)  -->
<svg version="1.1" xmlns="http://www.w3.org/2000/svg" xmlns:xlink="http://www.w3.org/1999/xlink" x="0px" y="0px"
	 viewBox="0 0 512.07 420.96" style="enable-background:new 0 0 512.07 420.96;" xml:space="preserve">
<style type="text/css">
	.st0{fill:#104573;}
	.st1{fill:#2B2227;}
</style>
<g id="Layer_2">
</g>
<g id="Layer_1">
	<path class="st0" d="M158.74,218.5c-15.04-0.35-30.09-0.84-45.12-2.12c-15.11-1.27-30.25-2.65-45.47-2.27
		c-3.89,0.1-5.06,1.53-5.01,5.25c0.09,6.69-0.01,13.41-0.51,20.08c-0.52,7.15-0.69,7.07,6.38,7.24c21.23,0.51,42.47,0.95,63.68,1.84
		c7.24,0.3,13.79-0.36,19.78-4.89c3.46-2.63,7.3-4.91,11.27-6.65c0.31-0.17,0.62-0.35,0.94-0.52c12.15-6.78,28.25-15.71,42.4-17.28
		C190.92,218.58,174.83,218.87,158.74,218.5z M82.02,241.32l-4.18-11.54l2.93,0.31l0.65-6.08l3.34,0.35l-0.65,6.08l2.96,0.31
		L82.02,241.32z M108.49,242.28l-4.18-11.54l2.93,0.31l0.65-6.08l3.34,0.35l-0.65,6.08l2.96,0.31L108.49,242.28z M136.87,242.76
		l-4.18-11.54l2.93,0.31l0.65-6.08l3.34,0.35l-0.65,6.08l2.96,0.31L136.87,242.76z"/>
	<path class="st1" d="M462.18,79.65c-7.84-10.04-17.45-16.36-30.94-13.3c-7.68,1.74-14.49,5.53-21.26,9.4
		c-10.77,6.16-20.27,14.31-31.44,19.84c-1.78,0.88-3.3,1.18-5.3,0.59c-14.17-4.23-28.38-8.34-42.6-12.43
		c-27.65-7.97-55.52-15.09-83.77-20.57c-21.17-4.11-42.75-4.41-64.19-5.21c-29.86-1.11-59.69-2.67-89.51-4.54
		c-7.47-0.47-14.99-0.56-22.49,0.17c-2.63,0.25-3.66,1.36-3.77,4.01c-0.31,7.49-0.88,14.98-1.28,22.47
		c-0.17,3.2-1.49,4.64-4.89,4.12c-2.41-0.37-4.92-0.05-7.33-0.4c-2.99-0.43-3.89,0.52-3.99,3.6c-0.37,11.54-0.94,23.07-1.67,34.59
		c-0.69,10.74-0.14,21.55-2.06,32.22c-0.26,1.47,1.13,2.58,3.04,2.78c4.04,0.41,8.05,0.7,12.08,0.03c2.71-0.45,3.95,0.41,4.11,3.36
		c0.42,7.92,1.3,15.81,1.6,23.73c0.12,3.1,1.38,3.75,3.97,3.41c6.78-1.1,13.66-1.43,20.4-2.9c18.85-4.12,37.71-8.18,56.61-12
		c18.26-3.69,36.72-6.25,55.38-4.77c12.62,1.01,25.14,3.19,37.72,4.68c18.59,2.2,36.97,6.2,55.79,6.31
		c20.06,0.11,40.13,0.15,60.19,0.31c11.43,0.09,22.56,2.6,33.76,4.5c6.26,1.06,12.56,1.7,18.94,0.56
		c6.04-1.08,10.62-4.11,13.92-9.29c4.73-7.44,8.77-15.23,11.9-23.48c3.09-8.15,7.84-14.96,14.98-20.14
		c4.65-3.37,9.07-7.08,12.82-11.49c5.29-6.21,6.34-13.69,6.35-21.47C468.91,91.35,466.43,85.09,462.18,79.65z M301.17,78.04
		c22.68,6.22,45.2,13.03,67.78,19.63c0.82,0.24,1.6,0.64,2.86,1.15c-5.3,3.72-11.39,5.38-16.27,8.91
		c-10.37,7.49-21.15,5.49-32.46,3.04c-20.81-4.5-41.76-8.32-62.64-12.44c-1.95-0.38-3.88-0.87-7.09-1.59
		c9.85-6.24,18.57-12.11,27.63-17.38C287.28,75.68,294.56,76.23,301.17,78.04z M230.53,63.24c18.55,2.28,36.77,6.55,55.38,11.16
		c-11.19,4.77-20.72,11.45-30.45,17.75c-4.23,2.74-8.24,3.38-12.86,1.09c-4-1.98-8.25-3.43-12.34-5.23
		c-7.83-3.43-16.14-4.14-24.51-4.17c-1.57-0.01-2.62-0.18-3.2-0.6c-0.82,0.27-1.76,0.39-2.59,0.29c-0.45,0.53-1.2,0.85-2.31,0.94
		c-12.73,1.05-25.39,3.18-38.23,2.43c-4.02-0.23-8.03-0.5-12.72-0.8c3.83-3.37,7.89-5.38,11.87-7.44
		c9.29-4.82,17.74-11.32,28.12-13.96C201.21,61.04,215.93,61.44,230.53,63.24z M68.21,81.1c0.63-7.18,0.98-14.4,1.1-21.61
		c0.05-2.84,1.02-3.6,3.69-3.76c12-0.69,23.95,0.34,35.86,1.35c16.68,1.41,33.36,2.4,50.09,2.6c8.8,0.1,17.6,0.35,26.4,0.65
		c1.93,0.07,3.85,0.68,5.78,1.04c-12.54,2.08-23.14,8.37-32.84,15.23c-13.09,9.26-26.95,10.48-42.07,9.36
		c-14.81-1.1-29.7-1.05-44.56-1.32C68.91,84.59,67.95,84.12,68.21,81.1z M52.25,154.69c-2.82,0.09-3.63-0.61-3.45-3.6
		c1.23-20.73,2.31-41.47,3.21-62.22c0.13-3.04,1.63-2.68,3.52-2.63c21.35,0.59,42.69,1.21,64.04,1.73
		c18.75,0.45,37.5,1.03,56.25,1.04c6.87,0,13.74-1.57,20.63-2.22c12.77-1.21,25.21-0.64,37.13,5.2
		c17.67,8.67,37.17,10.74,56.14,14.59c27.44,5.56,54.91,10.94,82.18,17.3c7.96,1.86,14.74-0.76,21.04-5.29
		c10.17-7.33,20.24-14.81,31.37-20.68c6.26-3.31,13.46-4.98,17.75-11.59c1.59-2.45,6.81,0.25,7.64,4c0.36,1.64,0.63,3.76-0.1,5.11
		c-4.22,7.83-6.28,17.15-15.1,21.89c-4.18,2.25-7.84,5.42-12.29,7.23c0.11,0.1,0.3,0.26,0.28,0.29c-5.56,9.22-8.7,19.49-12.95,29.28
		c-3.67,8.46-10.46,10.58-17.6,5.53c-14.53-10.27-30.66-10.95-47.17-9.24c-15.87,1.64-31.69,1.57-47.53,0.6
		c-23.75-1.46-47.65-3.59-69.8-12.54c-18.02-7.27-35.82-5.65-53.97-3.79c-28.51,2.93-56.19,10.55-84.41,15.16
		C76.84,151.83,64.68,154.28,52.25,154.69z M83.19,183.74c-3.65,0.75-7.42,0.9-11.13,1.38c-2.33,0.3-3.34-0.46-3.39-3.01
		c-0.18-7.78-0.42-15.57-1.01-23.32c-0.24-3.07,1.24-3.64,3.57-3.96c22.61-3.07,44.83-8.24,67.17-12.75
		c10.03-2.03,9.96-2.27,15.63,5.96c2.29,3.32,4.65,6.58,7.01,9.84c2.43,3.37,4.83,6.78,9.86,8.75
		C140.6,170.61,112.02,177.82,83.19,183.74z M269.1,173.47c-0.27,0.52-0.99,0.16-1.39-0.33c-19.27-2.48-38.54-4.92-57.79-7.47
		c-6.76-0.9-13.54-0.41-20.3-0.54c-2.59-0.05-5.2-0.01-7.79,0.12c-8.03,0.41-14.67-1.74-19.15-9.09c-2.76-4.53-6.22-8.64-9.33-12.96
		c-1.54-2.14-0.92-3.51,1.65-3.85c9.55-1.24,19.01-3.21,28.67-3.62c6.62-0.29,13.25-0.53,19.87-0.86c4.99-0.25,9.75,0.66,14.33,2.57
		c7.44,3.1,15.12,5.48,22.91,7.51c1.56,0.41,3.07,0.9,4.2,2.1c7.86,8.41,15.87,16.67,23.14,25.61
		C268.52,172.86,269.48,172.75,269.1,173.47z M330.83,176.77c-13.37-0.48-26.72-0.69-40.09-0.52c-11.44,0.15-21.12-3.51-27.15-14.03
		l-0.12-0.34c-5.24-3.82-9.21-8.83-13.05-13.95c-0.1-0.18-0.2-0.36-0.3-0.55c0.21,0.07,0.42,0.15,0.62,0.22
		c11.2,1.73,22.35,3.95,33.62,5.06c11.27,1.12,22.64,1.47,34,1.23c7.31-0.15,14.65,0.34,21.91-0.9c2.46-0.42,4.15,0.37,5.49,2.4
		c5.22,7.92,10.95,15.41,18.63,21.45C352.92,176.85,341.87,177.17,330.83,176.77z M453.51,125.07c-4.9,3.57-9.81,7.32-13.65,11.79
		c-3.31,3.85-4.66,9.35-6.98,14.07c-4.12,8.34-7.33,17.16-13.35,24.51c-3.79,4.63-8.75,6.61-14.36,6.8
		c-13.11,0.44-25.87-1.84-38.04-6.67c-5.31-2.1-9.13-6.31-11.62-11.55c-0.01-0.16-0.05-0.31-0.11-0.45
		c-3.75-1.78-4.77-5.92-7.38-8.7c-0.93-0.99-0.61-2.59,1.36-2.64c11.07-0.28,22.21-0.86,32.53,4.3c5.86,2.93,11.58,6.13,17.36,9.2
		c0.27-0.02,0.53-0.06,0.78-0.14c2.28-1.4,4.72-2.59,6.79-4.25c3.97-3.17,6.23-7.56,7.37-12.41c1.71-7.28,5.19-13.71,8.88-20.1
		c2.56-4.43,7.2-6.11,11.17-8.56c5.29-3.27,9.79-6.92,12.06-13c1.35-3.61,3.64-6.86,5.18-10.42c1.45-3.33,1.35-6.77-0.77-9.92
		c-2.9-4.31-8.34-5.27-11.26-1.58c-3.07,3.86-6.73,6.38-11.26,8.25c-13.44,5.56-24.78,14.59-36.47,22.98
		c-7.57,5.44-15.46,6.96-24.4,4.29c-6.74-2.02-13.62-3.55-20.51-5.31c0.4-2.22,2.26-2.36,3.54-3.02
		c9.47-4.87,18.95-9.74,28.52-14.42c10.28-5.03,19.16-12.28,28.94-18.1c6.67-3.97,13.32-7.89,20.77-10.44
		c10.88-3.73,19.81-0.47,27.43,7.08c9.17,9.09,12.72,20.21,9.23,32.85C463.46,116.05,458.91,121.14,453.51,125.07z"/>
	<path class="st0" d="M70.48,187.51c6.78-1.1,13.66-1.43,20.4-2.9c18.85-4.12,37.71-8.18,56.61-12c18.26-3.69,36.72-6.25,55.38-4.77
		c12.62,1.01,25.14,3.19,37.72,4.68c18.59,2.2,36.97,6.2,55.79,6.31c20.06,0.11,40.13,0.15,60.19,0.31
		c11.43,0.09,22.56,2.6,33.76,4.5c6.26,1.06,12.56,1.7,18.94,0.56c6.04-1.08,10.62-4.11,13.92-9.29c4.73-7.44,8.77-15.23,11.9-23.48
		c3.09-8.15,7.84-14.96,14.98-20.14c4.65-3.37,9.07-7.08,12.82-11.49c5.29-6.21,6.34-13.69,6.35-21.47
		c3.2,3.77,1.45,8.05,1.04,12.08c-0.75,7.31-5.68,12.15-10.62,16.99c-6.22,6.11-14.13,10.66-18.19,18.75
		c-3.08,6.14-5.57,12.57-8.39,18.83c-2.55,5.65-5.69,11.03-9.43,15.91c-3.44,4.48-9.11,5.11-14.31,5.78
		c-12.77,1.64-25.12-1.54-37.55-3.71c-1.84-0.32-3.71-0.55-5.58-0.6c-24.06-0.73-48.13-1.03-72.2-1.1
		c-12.59-0.03-25.04-2.5-37.55-3.8c-12.42-1.29-24.61-4.21-37.12-4.89c-9.31-0.5-18.45-3.23-27.88-2.37
		c-10.58,0.97-21.13,1.9-31.65,3.7c-9.48,1.62-18.9,3.58-28.4,5.14c-5.94,0.97-11.89,2.34-17.76,3.81
		c-8.75,2.19-17.49,4.33-26.44,5.48c-4.35,0.56-8.56,2.73-13.12,1.1C72.77,188.99,71.17,189.12,70.48,187.51z"/>
	<path class="st0" d="M163.73,236.97c0.39-0.17,0.69-0.35,0.94-0.52C164.36,236.63,164.04,236.8,163.73,236.97z"/>
	<path class="st0" d="M272.76,88.55c-0.03-0.31-0.03-0.62,0.02-0.94C272.83,87.93,272.82,88.25,272.76,88.55z"/>
	<path class="st0" d="M272.76,88.55c-0.03-0.31-0.03-0.62,0.02-0.94C272.83,87.93,272.82,88.25,272.76,88.55z"/>
	<path class="st0" d="M268.12,172.64c0.41,0.22,1.36,0.11,0.99,0.83c-0.27,0.52-0.99,0.16-1.39-0.33
		C267.86,172.98,267.99,172.81,268.12,172.64z"/>
	<path class="st0" d="M250.42,147.93c-0.1-0.18-0.2-0.36-0.3-0.55c0.21,0.07,0.42,0.15,0.63,0.22
		C250.64,147.72,250.53,147.83,250.42,147.93z"/>
	<path class="st1" d="M237.56,119.75c-0.1-0.85-1.76-0.73-1.25-1.76c0.19-0.37,1.24-0.32,1.89-0.46c1.23,0.15,3.18-0.1,2.8,1.72
		C240.55,121.44,238.77,119.77,237.56,119.75z"/>
	<path class="st0" d="M104.05,98.6c0.03,0.54-0.23,0.71-0.73,0.59C103.29,98.66,103.54,98.47,104.05,98.6z"/>
	<path class="st1" d="M183.65,111.71c1.65-1.2,2.82-0.93,4.38-0.54C186.73,112.44,185.49,112.12,183.65,111.71z"/>
	<path class="st0" d="M368.94,97.67c-22.58-6.6-45.09-13.4-67.77-19.62c-6.61-1.82-13.89-2.37-20.2,1.31
		c-9.06,5.28-17.77,11.14-27.63,17.38c3.22,0.73,5.15,1.2,7.1,1.6c20.89,4.12,41.83,7.94,62.64,12.44
		c11.31,2.44,22.09,4.44,32.46-3.04c4.88-3.53,10.97-5.18,16.27-8.91C370.54,98.31,369.76,97.91,368.94,97.67z M272.76,88.55
		c-0.03-0.31-0.03-0.62,0.02-0.94C272.83,87.93,272.82,88.25,272.76,88.55z M279.62,97.97l-4.39-9.01h2.4v-4.99h2.74v4.99h2.43
		L279.62,97.97z M299.32,101.75l-2.52-12.52l2.97,0.77l1.61-6.16l3.38,0.88l-1.61,6.16l2.99,0.78L299.32,101.75z M318.96,106.31
		l-2.52-12.52l2.97,0.77l1.61-6.16l3.38,0.88l-1.61,6.16l2.99,0.78L318.96,106.31z M339.7,110.86l-2.52-12.52l2.97,0.77l1.61-6.16
		l3.38,0.88l-1.61,6.16l2.99,0.78L339.7,110.86z"/>
	<path class="st0" d="M456.03,76.66c-7.61-7.54-16.54-10.8-27.42-7.07c-7.45,2.55-14.09,6.47-20.77,10.44
		c-9.78,5.82-18.65,13.06-28.94,18.1c-9.57,4.69-19.05,9.56-28.51,14.43c-1.27,0.65-3.14,0.8-3.54,3.02
		c6.88,1.76,13.77,3.29,20.5,5.31c8.94,2.67,16.82,1.15,24.4-4.29c11.68-8.39,23.02-17.43,36.46-22.98
		c4.54-1.87,8.19-4.39,11.26-8.25c2.93-3.69,8.37-2.73,11.27,1.59c2.12,3.14,2.22,6.57,0.76,9.92c-1.55,3.54-3.83,6.79-5.18,10.41
		c-2.27,6.09-6.77,9.73-12.06,13.01c-3.97,2.44-8.62,4.13-11.18,8.55c-3.69,6.39-7.16,12.82-8.88,20.1
		c-1.15,4.86-3.4,9.25-7.37,12.42c-1.79,1.43-6.25,2.51-8.88,3.69c-5.35-2.85-10.65-5.8-16.06-8.5c-10.32-5.16-21.46-4.58-32.53-4.3
		c-1.98,0.06-2.29,1.65-1.37,2.65c2.58,2.74,3.96,7.53,7.59,9.36c2.5,5.15,6.28,9.26,11.51,11.34c12.17,4.83,24.94,7.1,38.05,6.67
		c5.61-0.19,10.56-2.16,14.36-6.79c6.02-7.36,9.23-16.16,13.35-24.52c2.33-4.71,3.68-10.22,6.98-14.06
		c3.85-4.48,8.76-8.23,13.65-11.8c5.4-3.93,9.95-9.03,11.76-15.56C468.74,96.87,465.2,85.75,456.03,76.66z M378.03,119.11
		l-4.41-8.92l2.39-0.01l-0.03-4.96l2.72-0.02l0.03,4.96l2.41-0.01L378.03,119.11z M394.99,99.63l2.01-1.29l-2.68-4.17l2.29-1.47
		l2.68,4.17l2.03-1.3l2.18,9.23L394.99,99.63z M416.2,87.22l2.01-1.29l-2.68-4.17l2.29-1.47l2.68,4.17l2.03-1.3l2.18,9.23
		L416.2,87.22z M362.63,163.52l-0.52,4.93l-2.7-0.29l0.52-4.93l-2.4-0.25l4.08-8.56l3.39,9.35L362.63,163.52z M399.18,175.87
		l-0.52,4.93l-2.7-0.29l0.52-4.93l-2.4-0.25l4.08-8.56l3.39,9.35L399.18,175.87z M425.74,153.14l-2.68-4.17l-2.03,1.3l-2.18-9.23
		l8.51,5.16l-2.01,1.29l2.68,4.17L425.74,153.14z M453.23,122.82l-2.68-4.17l-2.03,1.3l-2.18-9.23l8.51,5.16l-2.01,1.29l2.68,4.17
		L453.23,122.82z"/>
	<path class="st0" d="M345.75,155.4c-1.33-2.02-3.03-2.82-5.48-2.4c-7.26,1.24-14.6,0.75-21.9,0.9
		c-11.36,0.23-22.74-0.12-34.01-1.23c-11.26-1.12-22.41-3.34-33.61-5.07c-0.1,0.1-0.21,0.22-0.32,0.32
		c3.8,5.06,8.02,10.51,13.18,14.31c6.03,10.5,15.7,14.15,27.13,14c13.38-0.17,26.73,0.03,40.09,0.52
		c11.04,0.39,22.1,0.08,33.57,0.08C356.71,170.81,350.97,163.32,345.75,155.4z M272.85,162.25l-0.52,4.93l-2.7-0.29l0.52-4.93
		l-2.4-0.25l4.08-8.56l3.39,9.35L272.85,162.25z M299.51,164.64l-0.52,4.93l-2.7-0.29l0.52-4.93l-2.4-0.25l4.08-8.56l3.39,9.35
		L299.51,164.64z M330.72,165.08l-0.52,4.93l-2.7-0.29l0.52-4.93l-2.4-0.25l4.08-8.56l3.39,9.35L330.72,165.08z"/>
	<path class="st0" d="M244.98,147.03c-1.12-1.2-2.64-1.7-4.2-2.11c-7.79-2.02-15.46-4.41-22.9-7.51c-4.58-1.91-9.35-2.81-14.34-2.57
		c-6.62,0.34-13.25,0.58-19.87,0.87c-9.65,0.42-19.12,2.37-28.67,3.62c-2.57,0.34-3.19,1.71-1.65,3.84
		c3.11,4.33,6.57,8.44,9.34,12.97c4.48,7.35,11.12,9.49,19.15,9.08c2.59-0.13,5.2-0.16,7.79-0.12c6.77,0.14,13.54-0.35,20.31,0.54
		c19.25,2.56,38.52,5,57.79,7.47c0.14-0.16,0.27-0.32,0.4-0.5C260.84,163.71,252.84,155.43,244.98,147.03z M172.05,148.29
		l-0.52,4.93l-2.7-0.29l0.52-4.93l-2.4-0.25l4.08-8.56l3.39,9.35L172.05,148.29z M199.43,147.38l-0.52,4.93l-2.7-0.29l0.52-4.93
		l-2.4-0.25l4.08-8.56l3.39,9.35L199.43,147.38z M219.56,151.19l-0.52,4.93l-2.7-0.29l0.52-4.93l-2.4-0.25l4.08-8.56l3.39,9.35
		L219.56,151.19z M243.14,159.9l-0.52,4.93l-2.7-0.29l0.52-4.93l-2.4-0.25l4.08-8.56l3.39,9.35L243.14,159.9z"/>
	<path class="st0" d="M230.53,63.24c-14.6-1.81-29.32-2.2-43.83,1.48c-10.38,2.64-18.83,9.14-28.12,13.95
		c-3.97,2.06-8.03,4.07-11.87,7.44c4.69,0.29,8.7,0.57,12.72,0.8c12.5,0.72,24.81-1.27,37.19-2.35c0.17,0.06,0.49,0.08,0.96,0.08
		c8.35,0.03,24.86-0.06,32.69,3.37c4.08,1.79,8.34,3.25,12.33,5.23c4.63,2.29,8.63,1.65,12.87-1.1
		c9.73-6.31,19.25-12.98,30.44-17.75C267.29,69.79,249.08,65.52,230.53,63.24z M169.41,86.32l-4.42-6.99h2.42v-3.88h2.76v3.88h2.44
		L169.41,86.32z M199.6,83.32l-5.54-11.36h3.03v-6.3h3.45v6.3h3.06L199.6,83.32z M223.85,85.53l-1.65-13.6l3.29,1l2.08-6.84
		l3.75,1.14l-2.08,6.84l3.32,1.01L223.85,85.53z M255.09,76.99h3.03v-6.3h3.45v6.3h3.06l-4.01,11.36L255.09,76.99z"/>
	<polygon class="st0" points="433.25,104.47 437.52,101.95 436.14,99.61 431.87,102.13 430.65,100.07 425.17,108.37 434.47,106.55 	
		"/>
	<polygon class="st0" points="418.75,121.63 423.02,119.11 421.64,116.77 417.37,119.29 416.15,117.23 410.67,125.53 419.97,123.7 	
		"/>
	<polygon class="st0" points="396.89,129.39 401.16,126.87 399.78,124.53 395.51,127.05 394.3,124.99 388.81,133.29 398.12,131.46 	
		"/>
	<polygon class="st0" points="401.42,148.98 406.22,147.75 405.54,145.11 400.74,146.35 400.14,144.04 392.57,150.49 402.02,151.32 
			"/>
	<polygon class="st0" points="370.62,142.91 375.56,143.24 375.74,140.52 370.8,140.2 370.95,137.81 361.74,141.57 370.46,145.31 	
		"/>
	<polygon class="st0" points="348.15,129.84 353.1,130.17 353.28,127.45 348.33,127.13 348.49,124.74 339.28,128.5 347.99,132.24 	
		"/>
	<polygon class="st0" points="321.39,141.89 326.34,142.22 326.52,139.5 321.57,139.18 321.73,136.79 312.52,140.55 321.24,144.29 	
		"/>
	<polygon class="st0" points="301.17,124.12 306.12,124.45 306.3,121.73 301.35,121.41 301.51,119.02 292.3,122.78 301.02,126.52 	
		"/>
	<polygon class="st0" points="278.1,133.72 283.04,134.05 283.22,131.33 278.27,131.01 278.43,128.62 269.22,132.38 277.94,136.12 	
		"/>
	<polygon class="st0" points="258.76,113.63 263.7,113.95 263.88,111.24 258.93,110.91 259.09,108.53 249.88,112.29 258.6,116.03 	
		"/>
	<polygon class="st0" points="235.27,118.73 240.21,119.06 240.39,116.35 235.45,116.02 235.6,113.64 226.39,117.4 235.11,121.14 	
		"/>
	<polygon class="st0" points="207.08,125.47 212.03,125.8 212.21,123.09 207.26,122.76 207.42,120.38 198.21,124.14 206.92,127.88 	
		"/>
	<polygon class="st0" points="208.92,98.72 213.87,99.04 214.05,96.33 209.1,96 209.26,93.62 200.05,97.38 208.76,101.12 	"/>
	<polygon class="st0" points="183.8,113.42 188.75,113.75 188.93,111.04 183.98,110.71 184.14,108.33 174.92,112.09 183.64,115.83 	
		"/>
	<polygon class="st0" points="157.66,100.55 162.6,100.88 162.78,98.17 157.83,97.84 157.99,95.46 148.78,99.22 157.5,102.96 	"/>
	<polygon class="st0" points="159.08,130.78 164.03,131.11 164.21,128.4 159.26,128.07 159.42,125.69 150.21,129.45 158.93,133.19 	
		"/>
	<polygon class="st0" points="132.33,118.94 137.28,119.26 137.46,116.55 132.51,116.22 132.67,113.84 123.45,117.6 132.17,121.34 	
		"/>
	<polygon class="st0" points="107.82,102.6 112.77,102.92 112.95,100.21 108,99.88 108.16,97.5 98.95,101.26 107.66,105 	"/>
	<polygon class="st0" points="110.27,135.27 115.22,135.6 115.4,132.89 110.45,132.56 110.61,130.18 101.4,133.94 110.11,137.68 	
		"/>
	<polygon class="st0" points="68.81,141.81 73.76,142.14 73.94,139.43 68.99,139.1 69.15,136.72 59.94,140.47 68.65,144.21 	"/>
	<polygon class="st0" points="84.33,120.98 89.28,121.31 89.46,118.59 84.51,118.27 84.67,115.88 75.46,119.64 84.17,123.38 	"/>
	<polygon class="st0" points="68.81,104.03 73.76,104.35 73.94,101.64 68.99,101.31 69.15,98.93 59.94,102.69 68.65,106.43 	"/>
	<path class="st1" d="M462.18,240.89c-7.84-10.04-17.45-16.36-30.94-13.3c-7.68,1.74-14.49,5.53-21.26,9.4
		c-10.77,6.16-20.27,14.31-31.44,19.84c-1.78,0.88-3.3,1.18-5.3,0.59c-14.17-4.23-28.38-8.34-42.6-12.43
		c-27.65-7.97-55.52-15.09-83.77-20.57c-21.17-4.11-42.75-4.41-64.19-5.21c-29.86-1.11-59.69-2.67-89.51-4.54
		c-7.47-0.47-14.99-0.56-22.49,0.17c-2.63,0.25-3.66,1.36-3.77,4.01c-0.31,7.49-0.88,14.98-1.28,22.47
		c-0.17,3.2-1.49,4.64-4.89,4.12c-2.41-0.37-4.92-0.05-7.33-0.4c-2.99-0.43-3.89,0.52-3.99,3.6c-0.37,11.54-0.94,23.07-1.67,34.59
		c-0.69,10.74-0.14,21.55-2.06,32.22c-0.26,1.47,1.13,2.58,3.04,2.78c4.04,0.41,8.05,0.7,12.08,0.03c2.71-0.45,3.95,0.41,4.11,3.36
		c0.42,7.92,1.3,15.81,1.6,23.73c0.12,3.1,1.38,3.75,3.97,3.41c6.78-1.1,13.66-1.43,20.4-2.9c18.85-4.12,37.71-8.18,56.61-12
		c18.26-3.69,36.72-6.25,55.38-4.77c12.62,1.01,25.14,3.19,37.72,4.68c18.59,2.2,36.97,6.2,55.79,6.31
		c20.06,0.11,40.13,0.15,60.19,0.31c11.43,0.09,22.56,2.6,33.76,4.5c6.26,1.06,12.56,1.7,18.94,0.56
		c6.04-1.08,10.62-4.11,13.92-9.29c4.73-7.44,8.77-15.23,11.9-23.48c3.09-8.15,7.84-14.96,14.98-20.14
		c4.65-3.37,9.07-7.08,12.82-11.49c5.29-6.21,6.34-13.69,6.35-21.47C468.91,252.59,466.43,246.34,462.18,240.89z M301.17,239.28
		c22.68,6.22,45.2,13.03,67.78,19.63c0.82,0.24,1.6,0.64,2.86,1.15c-5.3,3.72-11.39,5.38-16.27,8.91
		c-10.37,7.49-21.15,5.49-32.46,3.04c-20.81-4.5-41.76-8.32-62.64-12.44c-1.95-0.38-3.88-0.87-7.09-1.59
		c9.85-6.24,18.57-12.11,27.63-17.38C287.28,236.92,294.56,237.47,301.17,239.28z M230.53,224.48c18.55,2.28,36.77,6.55,55.38,11.16
		c-11.19,4.77-20.72,11.45-30.45,17.75c-4.23,2.74-8.24,3.38-12.86,1.09c-4-1.98-8.25-3.43-12.34-5.23
		c-7.83-3.43-16.14-4.14-24.51-4.17c-1.57-0.01-2.62-0.18-3.2-0.6c-0.82,0.27-1.76,0.39-2.59,0.29c-0.45,0.53-1.2,0.85-2.31,0.94
		c-12.73,1.05-25.39,3.18-38.23,2.43c-4.02-0.23-8.03-0.5-12.72-0.8c3.83-3.37,7.89-5.38,11.87-7.44
		c9.29-4.82,17.74-11.32,28.12-13.96C201.21,222.28,215.93,222.69,230.53,224.48z M68.21,242.34c0.63-7.18,0.98-14.4,1.1-21.61
		c0.05-2.84,1.02-3.6,3.69-3.76c12-0.69,23.95,0.34,35.86,1.35c16.68,1.41,33.36,2.4,50.09,2.6c8.8,0.1,17.6,0.35,26.4,0.65
		c1.93,0.07,3.85,0.68,5.78,1.04c-12.54,2.08-23.14,8.37-32.84,15.23c-13.09,9.26-26.95,10.48-42.07,9.36
		c-14.81-1.1-29.7-1.05-44.56-1.32C68.91,245.83,67.95,245.36,68.21,242.34z M52.25,315.93c-2.82,0.09-3.63-0.61-3.45-3.6
		c1.23-20.73,2.31-41.47,3.21-62.22c0.13-3.04,1.63-2.68,3.52-2.63c21.35,0.59,42.69,1.21,64.04,1.73
		c18.75,0.45,37.5,1.03,56.25,1.04c6.87,0,13.74-1.57,20.63-2.22c12.77-1.21,25.21-0.64,37.13,5.2
		c17.67,8.67,37.17,10.74,56.14,14.59c27.44,5.56,54.91,10.94,82.18,17.3c7.96,1.86,14.74-0.76,21.04-5.29
		c10.17-7.33,20.24-14.81,31.37-20.68c6.26-3.31,13.46-4.98,17.75-11.59c1.59-2.45,6.81,0.25,7.64,4c0.36,1.64,0.63,3.76-0.1,5.11
		c-4.22,7.83-6.28,17.15-15.1,21.89c-4.18,2.25-7.84,5.42-12.29,7.23c0.11,0.1,0.3,0.26,0.28,0.29c-5.56,9.22-8.7,19.49-12.95,29.28
		c-3.67,8.46-10.46,10.58-17.6,5.53c-14.53-10.27-30.66-10.95-47.17-9.24c-15.87,1.64-31.69,1.57-47.53,0.6
		c-23.75-1.46-47.65-3.59-69.8-12.54c-18.02-7.27-35.82-5.65-53.97-3.79c-28.51,2.93-56.19,10.55-84.41,15.16
		C76.84,313.07,64.68,315.52,52.25,315.93z M83.19,344.98c-3.65,0.75-7.42,0.9-11.13,1.38c-2.33,0.3-3.34-0.46-3.39-3.01
		c-0.18-7.78-0.42-15.57-1.01-23.32c-0.24-3.07,1.24-3.64,3.57-3.96c22.61-3.07,44.83-8.24,67.17-12.75
		c10.03-2.03,9.96-2.27,15.63,5.96c2.29,3.32,4.65,6.58,7.01,9.84c2.43,3.37,4.83,6.78,9.86,8.75
		C140.6,331.85,112.02,339.06,83.19,344.98z M269.1,334.71c-0.27,0.52-0.99,0.16-1.39-0.33c-19.27-2.48-38.54-4.92-57.79-7.47
		c-6.76-0.9-13.54-0.41-20.3-0.54c-2.59-0.05-5.2-0.01-7.79,0.12c-8.03,0.41-14.67-1.74-19.15-9.09c-2.76-4.53-6.22-8.64-9.33-12.96
		c-1.54-2.14-0.92-3.51,1.65-3.85c9.55-1.24,19.01-3.21,28.67-3.62c6.62-0.29,13.25-0.53,19.87-0.86c4.99-0.25,9.75,0.66,14.33,2.57
		c7.44,3.1,15.12,5.48,22.91,7.51c1.56,0.41,3.07,0.9,4.2,2.1c7.86,8.41,15.87,16.67,23.14,25.61
		C268.52,334.1,269.48,333.99,269.1,334.71z M330.83,338.01c-13.37-0.48-26.72-0.69-40.09-0.52c-11.44,0.15-21.12-3.51-27.15-14.03
		l-0.12-0.34c-5.24-3.82-9.21-8.83-13.05-13.95c-0.1-0.18-0.2-0.36-0.3-0.55c0.21,0.07,0.42,0.15,0.62,0.22
		c11.2,1.73,22.35,3.95,33.62,5.06c11.27,1.12,22.64,1.47,34,1.23c7.31-0.15,14.65,0.34,21.91-0.9c2.46-0.42,4.15,0.37,5.49,2.4
		c5.22,7.92,10.95,15.41,18.63,21.45C352.92,338.09,341.87,338.41,330.83,338.01z M453.51,286.32c-4.9,3.57-9.81,7.32-13.65,11.79
		c-3.31,3.85-4.66,9.35-6.98,14.07c-4.12,8.34-7.33,17.16-13.35,24.51c-3.79,4.63-8.75,6.61-14.36,6.8
		c-13.11,0.44-25.87-1.84-38.04-6.67c-5.31-2.1-9.13-6.31-11.62-11.55c-0.01-0.16-0.05-0.31-0.11-0.45
		c-3.75-1.78-4.77-5.92-7.38-8.7c-0.93-0.99-0.61-2.59,1.36-2.64c11.07-0.28,22.21-0.86,32.53,4.3c5.86,2.93,11.58,6.13,17.36,9.2
		c0.27-0.02,0.53-0.06,0.78-0.14c2.28-1.4,4.72-2.59,6.79-4.25c3.97-3.17,6.23-7.56,7.37-12.41c1.71-7.28,5.19-13.71,8.88-20.1
		c2.56-4.43,7.2-6.11,11.17-8.56c5.29-3.27,9.79-6.92,12.06-13c1.35-3.61,3.64-6.86,5.18-10.42c1.45-3.33,1.35-6.77-0.77-9.92
		c-2.9-4.31-8.34-5.27-11.26-1.58c-3.07,3.86-6.73,6.38-11.26,8.25c-13.44,5.56-24.78,14.59-36.47,22.98
		c-7.57,5.44-15.46,6.96-24.4,4.29c-6.74-2.02-13.62-3.55-20.51-5.31c0.4-2.22,2.26-2.36,3.54-3.02
		c9.47-4.87,18.95-9.74,28.52-14.42c10.28-5.03,19.16-12.28,28.94-18.1c6.67-3.97,13.32-7.89,20.77-10.44
		c10.88-3.73,19.81-0.47,27.43,7.08c9.17,9.09,12.72,20.21,9.23,32.85C463.46,277.29,458.91,282.38,453.51,286.32z"/>
	<path class="st0" d="M70.48,348.75c6.78-1.1,13.66-1.43,20.4-2.9c18.85-4.12,37.71-8.18,56.61-12c18.26-3.69,36.72-6.25,55.38-4.77
		c12.62,1.01,25.14,3.19,37.72,4.68c18.59,2.2,36.97,6.2,55.79,6.31c20.06,0.11,40.13,0.15,60.19,0.31
		c11.43,0.09,22.56,2.6,33.76,4.5c6.26,1.06,12.56,1.7,18.94,0.56c6.04-1.08,10.62-4.11,13.92-9.29c4.73-7.44,8.77-15.23,11.9-23.48
		c3.09-8.15,7.84-14.96,14.98-20.14c4.65-3.37,9.07-7.08,12.82-11.49c5.29-6.21,6.34-13.69,6.35-21.47
		c3.2,3.77,1.45,8.05,1.04,12.08c-0.75,7.31-5.68,12.15-10.62,16.99c-6.22,6.11-14.13,10.66-18.19,18.75
		c-3.08,6.14-5.57,12.57-8.39,18.83c-2.55,5.65-5.69,11.03-9.43,15.91c-3.44,4.48-9.11,5.11-14.31,5.78
		c-12.77,1.64-25.12-1.54-37.55-3.71c-1.84-0.32-3.71-0.55-5.58-0.6c-24.06-0.73-48.13-1.03-72.2-1.1
		c-12.59-0.03-25.04-2.5-37.55-3.8c-12.42-1.29-24.61-4.21-37.12-4.89c-9.31-0.5-18.45-3.23-27.88-2.37
		c-10.58,0.97-21.13,1.9-31.65,3.7c-9.48,1.62-18.9,3.58-28.4,5.14c-5.94,0.97-11.89,2.34-17.76,3.81
		c-8.75,2.19-17.49,4.33-26.44,5.48c-4.35,0.56-8.56,2.73-13.12,1.1C72.77,350.23,71.17,350.36,70.48,348.75z"/>
	<path class="st0" d="M272.76,249.79c-0.03-0.31-0.03-0.62,0.02-0.94C272.83,249.17,272.82,249.49,272.76,249.79z"/>
	<path class="st0" d="M272.76,249.79c-0.03-0.31-0.03-0.62,0.02-0.94C272.83,249.17,272.82,249.49,272.76,249.79z"/>
	<path class="st0" d="M268.12,333.88c0.41,0.22,1.36,0.11,0.99,0.83c-0.27,0.52-0.99,0.16-1.39-0.33
		C267.86,334.22,267.99,334.05,268.12,333.88z"/>
	<path class="st0" d="M250.42,309.17c-0.1-0.18-0.2-0.36-0.3-0.55c0.21,0.07,0.42,0.15,0.63,0.22
		C250.64,308.96,250.53,309.07,250.42,309.17z"/>
	<path class="st1" d="M237.56,280.99c-0.1-0.85-1.76-0.73-1.25-1.76c0.19-0.37,1.24-0.32,1.89-0.46c1.23,0.15,3.18-0.1,2.8,1.72
		C240.55,282.68,238.77,281.01,237.56,280.99z"/>
	<path class="st0" d="M104.05,259.84c0.03,0.54-0.23,0.71-0.73,0.59C103.29,259.9,103.54,259.72,104.05,259.84z"/>
	<path class="st1" d="M183.65,272.95c1.65-1.2,2.82-0.93,4.38-0.54C186.73,273.68,185.49,273.36,183.65,272.95z"/>
	<path class="st0" d="M368.94,258.91c-22.58-6.6-45.09-13.4-67.77-19.62c-6.61-1.82-13.89-2.37-20.2,1.31
		c-9.06,5.28-17.77,11.14-27.63,17.38c3.22,0.73,5.15,1.2,7.1,1.6c20.89,4.12,41.83,7.94,62.64,12.44
		c11.31,2.44,22.09,4.44,32.46-3.04c4.88-3.53,10.97-5.18,16.27-8.91C370.54,259.55,369.76,259.15,368.94,258.91z M272.76,249.79
		c-0.03-0.31-0.03-0.62,0.02-0.94C272.83,249.17,272.82,249.49,272.76,249.79z M279.62,259.21l-4.39-9.01h2.4v-4.99h2.74v4.99h2.43
		L279.62,259.21z M299.32,262.99l-2.52-12.52l2.97,0.77l1.61-6.16l3.38,0.88l-1.61,6.16l2.99,0.78L299.32,262.99z M318.96,267.55
		l-2.52-12.52l2.97,0.77l1.61-6.16l3.38,0.88l-1.61,6.16l2.99,0.78L318.96,267.55z M339.7,272.11l-2.52-12.52l2.97,0.77l1.61-6.16
		l3.38,0.88l-1.61,6.16l2.99,0.78L339.7,272.11z"/>
	<path class="st0" d="M456.03,237.9c-7.61-7.54-16.54-10.8-27.42-7.07c-7.45,2.55-14.09,6.47-20.77,10.44
		c-9.78,5.82-18.65,13.06-28.94,18.1c-9.57,4.69-19.05,9.56-28.51,14.43c-1.27,0.65-3.14,0.8-3.54,3.02
		c6.88,1.76,13.77,3.29,20.5,5.31c8.94,2.67,16.82,1.15,24.4-4.29c11.68-8.39,23.02-17.43,36.46-22.98
		c4.54-1.87,8.19-4.39,11.26-8.25c2.93-3.69,8.37-2.73,11.27,1.59c2.12,3.14,2.22,6.57,0.76,9.92c-1.55,3.54-3.83,6.79-5.18,10.41
		c-2.27,6.09-6.77,9.73-12.06,13.01c-3.97,2.44-8.62,4.13-11.18,8.55c-3.69,6.39-7.16,12.82-8.88,20.1
		c-1.15,4.86-3.4,9.25-7.37,12.42c-1.79,1.43-6.25,2.51-8.88,3.69c-5.35-2.85-10.65-5.8-16.06-8.5c-10.32-5.16-21.46-4.58-32.53-4.3
		c-1.98,0.06-2.29,1.65-1.37,2.65c2.58,2.74,3.96,7.53,7.59,9.36c2.5,5.15,6.28,9.26,11.51,11.34c12.17,4.83,24.94,7.1,38.05,6.67
		c5.61-0.19,10.56-2.16,14.36-6.79c6.02-7.36,9.23-16.16,13.35-24.52c2.33-4.71,3.68-10.22,6.98-14.06
		c3.85-4.48,8.76-8.23,13.65-11.8c5.4-3.93,9.95-9.03,11.76-15.56C468.74,258.11,465.2,246.99,456.03,237.9z M378.03,280.35
		l-4.41-8.92l2.39-0.01l-0.03-4.96l2.72-0.02l0.03,4.96l2.41-0.01L378.03,280.35z M394.99,260.87l2.01-1.29l-2.68-4.17l2.29-1.47
		l2.68,4.17l2.03-1.3l2.18,9.23L394.99,260.87z M416.2,248.46l2.01-1.29l-2.68-4.17l2.29-1.47l2.68,4.17l2.03-1.3l2.18,9.23
		L416.2,248.46z M362.63,324.76l-0.52,4.93l-2.7-0.29l0.52-4.93l-2.4-0.25l4.08-8.56l3.39,9.35L362.63,324.76z M399.18,337.11
		l-0.52,4.93l-2.7-0.29l0.52-4.93l-2.4-0.25l4.08-8.56l3.39,9.35L399.18,337.11z M425.74,314.39l-2.68-4.17l-2.03,1.3l-2.18-9.23
		l8.51,5.16l-2.01,1.29l2.68,4.17L425.74,314.39z M453.23,284.06l-2.68-4.17l-2.03,1.3l-2.18-9.23l8.51,5.16l-2.01,1.29l2.68,4.17
		L453.23,284.06z"/>
	<path class="st0" d="M345.75,316.64c-1.33-2.02-3.03-2.82-5.48-2.4c-7.26,1.24-14.6,0.75-21.9,0.9
		c-11.36,0.23-22.74-0.12-34.01-1.23c-11.26-1.12-22.41-3.34-33.61-5.07c-0.1,0.1-0.21,0.22-0.32,0.32
		c3.8,5.06,8.02,10.51,13.18,14.31c6.03,10.5,15.7,14.15,27.13,14c13.38-0.17,26.73,0.03,40.09,0.52
		c11.04,0.39,22.1,0.08,33.57,0.08C356.71,332.05,350.97,324.57,345.75,316.64z M272.85,323.49l-0.52,4.93l-2.7-0.29l0.52-4.93
		l-2.4-0.25l4.08-8.56l3.39,9.35L272.85,323.49z M299.51,325.89l-0.52,4.93l-2.7-0.29l0.52-4.93l-2.4-0.25l4.08-8.56l3.39,9.35
		L299.51,325.89z M330.72,326.32l-0.52,4.93l-2.7-0.29l0.52-4.93l-2.4-0.25l4.08-8.56l3.39,9.35L330.72,326.32z"/>
	<path class="st0" d="M244.98,308.27c-1.12-1.2-2.64-1.7-4.2-2.11c-7.79-2.02-15.46-4.41-22.9-7.51c-4.58-1.91-9.35-2.81-14.34-2.57
		c-6.62,0.34-13.25,0.58-19.87,0.87c-9.65,0.42-19.12,2.37-28.67,3.62c-2.57,0.34-3.19,1.71-1.65,3.84
		c3.11,4.33,6.57,8.44,9.34,12.97c4.48,7.35,11.12,9.49,19.15,9.08c2.59-0.13,5.2-0.16,7.79-0.12c6.77,0.14,13.54-0.35,20.31,0.54
		c19.25,2.56,38.52,5,57.79,7.47c0.14-0.16,0.27-0.32,0.4-0.5C260.84,324.95,252.84,316.67,244.98,308.27z M172.05,309.53
		l-0.52,4.93l-2.7-0.29l0.52-4.93l-2.4-0.25l4.08-8.56l3.39,9.35L172.05,309.53z M199.43,308.63l-0.52,4.93l-2.7-0.29l0.52-4.93
		l-2.4-0.25l4.08-8.56l3.39,9.35L199.43,308.63z M219.56,312.44l-0.52,4.93l-2.7-0.29l0.52-4.93l-2.4-0.25l4.08-8.56l3.39,9.35
		L219.56,312.44z M243.14,321.14l-0.52,4.93l-2.7-0.29l0.52-4.93l-2.4-0.25l4.08-8.56l3.39,9.35L243.14,321.14z"/>
	<path class="st0" d="M168.74,326.18c-6.21-6.82-11.37-14.36-16.38-22.04c-1.41-2.16-2.82-2.73-5.54-2.26
		c-26.05,4.47-51.71,11.04-77.91,14.72c-2.85,0.4-2.85,1.97-2.71,4.1c0.47,7.35,1.08,14.7,1.21,22.06c0.06,3.59,0.74,5.65,4.86,4.96
		c4.88-0.83,9.79-1.5,14.63-2.53c16.3-3.46,32.54-7.17,48.86-10.52c10.14-2.08,20.39-3.61,30.54-5.62
		C167.23,328.88,171.84,329.59,168.74,326.18z M79.9,326.68l-0.52,4.93l-2.7-0.29l0.52-4.93l-2.4-0.25l4.08-8.56l3.39,9.35
		L79.9,326.68z M109.05,326.09l-2.69,0.36l-0.66-4.91l-2.39,0.32l1.94-9.28l5.51,8.28l-2.37,0.32L109.05,326.09z M136.7,318.77
		l-2.69,0.36l-0.66-4.91l-2.39,0.32l1.94-9.28l5.51,8.28l-2.37,0.32L136.7,318.77z"/>
	<path class="st0" d="M230.53,224.49c-14.6-1.81-29.32-2.2-43.83,1.48c-10.38,2.64-18.83,9.14-28.12,13.95
		c-3.97,2.06-8.03,4.07-11.87,7.44c4.69,0.29,8.7,0.57,12.72,0.8c12.5,0.72,24.81-1.27,37.19-2.35c0.17,0.06,0.49,0.08,0.96,0.08
		c8.35,0.03,24.86-0.06,32.69,3.37c4.08,1.79,8.34,3.25,12.33,5.23c4.63,2.29,8.63,1.65,12.87-1.1
		c9.73-6.31,19.25-12.98,30.44-17.75C267.29,231.04,249.08,226.77,230.53,224.49z M169.41,247.57l-4.42-6.99h2.42v-3.88h2.76v3.88
		h2.44L169.41,247.57z M199.6,244.56l-5.54-11.36h3.03v-6.3h3.45v6.3h3.06L199.6,244.56z M223.85,246.78l-1.65-13.6l3.29,1
		l2.08-6.84l3.75,1.14l-2.08,6.84l3.32,1.01L223.85,246.78z M255.09,238.23h3.03v-6.3h3.45v6.3h3.06l-4.01,11.36L255.09,238.23z"/>
	<polygon class="st0" points="433.25,265.71 437.52,263.19 436.14,260.85 431.87,263.37 430.65,261.32 425.17,269.62 434.47,267.79 
			"/>
	<polygon class="st0" points="418.75,282.87 423.02,280.35 421.64,278.01 417.37,280.53 416.15,278.47 410.67,286.77 419.97,284.94 
			"/>
	<polygon class="st0" points="396.89,290.63 401.16,288.11 399.78,285.77 395.51,288.29 394.3,286.23 388.81,294.53 398.12,292.7 	
		"/>
	<polygon class="st0" points="401.42,310.22 406.22,308.99 405.54,306.36 400.74,307.59 400.14,305.28 392.57,311.73 402.02,312.56 
			"/>
	<polygon class="st0" points="370.62,304.15 375.56,304.48 375.74,301.77 370.8,301.44 370.95,299.06 361.74,302.82 370.46,306.56 	
		"/>
	<polygon class="st0" points="348.15,291.08 353.1,291.41 353.28,288.69 348.33,288.37 348.49,285.98 339.28,289.74 347.99,293.48 	
		"/>
	<polygon class="st0" points="321.39,303.13 326.34,303.46 326.52,300.75 321.57,300.42 321.73,298.04 312.52,301.79 321.24,305.53 
			"/>
	<polygon class="st0" points="301.17,285.36 306.12,285.69 306.3,282.98 301.35,282.65 301.51,280.27 292.3,284.03 301.02,287.77 	
		"/>
	<polygon class="st0" points="278.1,294.96 283.04,295.29 283.22,292.58 278.27,292.25 278.43,289.87 269.22,293.62 277.94,297.36 	
		"/>
	<polygon class="st0" points="258.76,274.87 263.7,275.19 263.88,272.48 258.93,272.15 259.09,269.77 249.88,273.53 258.6,277.27 	
		"/>
	<polygon class="st0" points="235.27,279.97 240.21,280.3 240.39,277.59 235.45,277.26 235.6,274.88 226.39,278.64 235.11,282.38 	
		"/>
	<polygon class="st0" points="207.08,286.71 212.03,287.04 212.21,284.33 207.26,284 207.42,281.62 198.21,285.38 206.92,289.12 	
		"/>
	<polygon class="st0" points="208.92,259.96 213.87,260.29 214.05,257.57 209.1,257.25 209.26,254.86 200.05,258.62 208.76,262.36 	
		"/>
	<polygon class="st0" points="183.8,274.66 188.75,274.99 188.93,272.28 183.98,271.95 184.14,269.57 174.92,273.33 183.64,277.07 	
		"/>
	<polygon class="st0" points="157.66,261.8 162.6,262.12 162.78,259.41 157.83,259.08 157.99,256.7 148.78,260.46 157.5,264.2 	"/>
	<polygon class="st0" points="159.08,292.02 164.03,292.35 164.21,289.64 159.26,289.31 159.42,286.93 150.21,290.69 158.93,294.43 
			"/>
	<polygon class="st0" points="132.33,280.18 137.28,280.51 137.46,277.79 132.51,277.47 132.67,275.08 123.45,278.84 132.17,282.58 
			"/>
	<polygon class="st0" points="107.82,263.84 112.77,264.17 112.95,261.45 108,261.13 108.16,258.74 98.95,262.5 107.66,266.24 	"/>
	<polygon class="st0" points="110.27,296.52 115.22,296.84 115.4,294.13 110.45,293.8 110.61,291.42 101.4,295.18 110.11,298.92 	
		"/>
	<polygon class="st0" points="68.81,303.05 73.76,303.38 73.94,300.67 68.99,300.34 69.15,297.96 59.94,301.72 68.65,305.46 	"/>
	<polygon class="st0" points="84.33,282.22 89.28,282.55 89.46,279.83 84.51,279.51 84.67,277.13 75.46,280.88 84.17,284.62 	"/>
	<polygon class="st0" points="68.81,265.27 73.76,265.6 73.94,262.88 68.99,262.56 69.15,260.17 59.94,263.93 68.65,267.67 	"/>
</g>
</svg>
