<?xml version="1.0" encoding="utf-8"?>
<!-- Generator: Adobe Illustrator 27.0.0, SVG Export Plug-In . SVG Version: 6.00 Build 0)  -->
<svg version="1.1" id="Layer_1" xmlns="http://www.w3.org/2000/svg" xmlns:xlink="http://www.w3.org/1999/xlink" x="0px" y="0px"
	 viewBox="0 0 295.01 312.45" style="enable-background:new 0 0 295.01 312.45;" xml:space="preserve">
<style type="text/css">
	.st0{fill:#FFFFFF;}
</style>
<path class="st0" d="M147.5,14.46c-78.17,0-141.76,63.6-141.76,141.77S69.33,297.99,147.5,297.99s141.76-63.6,141.76-141.77
	S225.68,14.46,147.5,14.46z M258.1,141.2h-43.14c-1.55-31.08-7.87-61.87-18.66-85.33C229.18,71.93,253.01,103.59,258.1,141.2z
	 M147.5,267.95c-13.9,0-34.32-38.03-37.39-96.7h74.77C181.82,229.92,161.4,267.95,147.5,267.95z M110.12,141.2
	c3.06-58.68,23.49-96.71,37.39-96.71s34.32,38.03,37.39,96.71H110.12z M98.71,55.87c-10.79,23.46-17.12,54.25-18.67,85.33H36.9
	C42,103.59,65.82,71.93,98.71,55.87z M36.9,171.24h43.14c1.55,31.08,7.87,61.87,18.67,85.33C65.82,240.52,42,208.86,36.9,171.24z
	 M196.3,256.58c10.79-23.46,17.11-54.26,18.66-85.33h43.14C253.01,208.86,229.18,240.52,196.3,256.58z"/>
</svg>
